<svg xmlns="http://www.w3.org/2000/svg" width="1500" height="540"
      viewBox="0 0 1500 540" role="img" aria-labelledby="title desc">
      <title id="title">Nexun Studio principal</title>
      <desc id="desc">Logo vetorial Nexun Studio com fundo transparente.</desc>
      
    <defs>
      <linearGradient id="purpleGrad" x1="0%" y1="0%" x2="100%" y2="100%">
        <stop offset="0%" stop-color="#7C3AED"/>
        <stop offset="100%" stop-color="#9A6BFF"/>
      </linearGradient>
    </defs>
    
      
    <g fill="#F5F5F7">
      <rect x="100" y="60" width="32.0" height="260.0"/>
      <rect x="248.0" y="60" width="32.0" height="260.0"/>
      <polygon points="100,60 132.0,60 280.0,320.0 248.0,320.0"/>
    </g>
    

    <g fill="#F5F5F7">
      <rect x="328.0" y="60" width="175.0" height="32.0" rx="2"/>
      <rect x="328.0" y="174.0" width="175.0" height="32.0" rx="2"/>
      <rect x="328.0" y="288.0" width="175.0" height="32.0" rx="2"/>
    </g>
    

    <g transform="translate(551.0,60)" fill="url(#purpleGrad)">
      <polygon points="0,0 46,0 220.0,260.0 174.0,260.0"/>
      <polygon points="174.0,0 220.0,0 46,260.0 0,260.0"/>
    </g>
    

    <path d="M 835.0 60
             V 230.0
             A 74.0 74.0 0 0 0 983.0 230.0
             V 60"
          fill="none" stroke="#F5F5F7" stroke-width="32.0"
          stroke-linecap="butt" stroke-linejoin="round"/>
    

    <g fill="#F5F5F7">
      <rect x="1047.0" y="60" width="32.0" height="260.0"/>
      <rect x="1195.0" y="60" width="32.0" height="260.0"/>
      <polygon points="1047.0,60 1079.0,60 1227.0,320.0 1195.0,320.0"/>
    </g>
    
    <text x="750" y="455" text-anchor="middle"
          fill="#7C3AED" font-family="Arial, Helvetica, sans-serif"
          font-size="58" font-weight="500" letter-spacing="34px">STUDIO</text>
    
    </svg>