<svg version="1.1" id="Layer_1" xmlns="http://www.w3.org/2000/svg" xmlns:xlink="http://www.w3.org/1999/xlink" x="0px" y="0px"
	 width="100%" viewBox="0 0 2172 724" enable-background="new 0 0 2172 724" xml:space="preserve">
<path fill="#000000" opacity="1.000000" stroke="none" 
	d="
M1523.000000,725.000000 
	C1015.333313,725.000000 508.166656,725.000000 1.000000,725.000000 
	C1.000000,483.666656 1.000000,242.333328 1.000000,1.000000 
	C725.000000,1.000000 1449.000000,1.000000 2173.000000,1.000000 
	C2173.000000,242.333328 2173.000000,483.666656 2173.000000,725.000000 
	C1956.500000,725.000000 1740.000000,725.000000 1523.000000,725.000000 
M1053.322266,422.567169 
	C1053.551880,422.445862 1053.654785,422.255890 1054.292480,421.734955 
	C1066.879639,410.476379 1079.539062,399.296539 1091.996704,387.896515 
	C1094.669067,385.451050 1096.225708,385.393555 1098.918213,387.920776 
	C1113.536743,401.641296 1128.327515,415.178894 1143.117432,428.715729 
	C1151.049194,435.975433 1159.098145,443.107056 1167.446655,450.999573 
	C1167.880859,451.281891 1168.315063,451.564209 1168.849609,452.426758 
	C1170.348511,453.582703 1171.847534,454.738647 1173.581787,456.461334 
	C1174.838989,457.492340 1176.096313,458.523315 1177.601807,460.080627 
	C1178.084839,460.373138 1178.567749,460.665649 1179.333984,461.605194 
	C1181.519531,462.153564 1183.704468,463.172150 1185.890869,463.175507 
	C1202.540771,463.201019 1219.191284,463.038055 1235.841187,462.902557 
	C1237.576660,462.888428 1239.310425,462.671112 1241.317383,462.528778 
	C1240.961182,461.461304 1240.945068,460.882935 1240.647827,460.599121 
	C1232.729370,453.037720 1224.916992,445.357758 1216.810059,438.002899 
	C1201.977783,424.546661 1186.940186,411.317108 1172.042480,397.932556 
	C1161.699097,388.639801 1151.372925,379.325012 1141.207153,369.839844 
	C1138.754639,367.551575 1136.967773,364.549866 1135.517700,361.651123 
	C1141.546997,356.074554 1147.576294,350.497955 1154.048706,344.364075 
	C1155.018799,343.479919 1155.996582,342.604187 1156.957397,341.710052 
	C1164.002441,335.154205 1171.044067,328.594666 1178.637207,321.855469 
	C1179.122192,321.272552 1179.607056,320.689636 1180.574463,319.941345 
	C1180.751709,319.660400 1180.928955,319.379425 1181.585571,318.945282 
	C1181.759644,318.667358 1181.933838,318.389435 1182.605957,318.013885 
	C1185.100586,315.709686 1187.595215,313.405487 1190.520508,311.007721 
	C1191.047607,310.370453 1191.574707,309.733154 1192.588745,308.958038 
	C1192.787598,308.702026 1192.986450,308.446014 1193.708984,308.179993 
	C1196.225830,305.888245 1198.718262,303.569153 1201.263550,301.309509 
	C1212.780273,291.085480 1224.311890,280.878265 1236.385742,270.456512 
	C1237.166382,269.622681 1237.947021,268.788818 1239.367676,267.555481 
	C1239.840820,266.517731 1240.314087,265.479950 1241.127075,264.325043 
	C1241.024902,264.370056 1240.922852,264.415100 1240.171387,264.464600 
	C1239.748047,264.525879 1239.324829,264.587158 1238.412964,264.373566 
	C1238.074463,264.492767 1237.736084,264.611938 1236.969116,264.460846 
	C1236.645752,264.519592 1236.322388,264.578339 1235.276489,264.351349 
	C1233.171021,264.444305 1231.065430,264.537262 1228.064453,264.376648 
	C1223.011108,264.411346 1217.957764,264.446045 1212.098022,264.253479 
	C1210.429199,264.308105 1208.760376,264.362701 1206.161865,264.220886 
	C1198.680176,264.199799 1191.195312,264.058319 1183.718872,264.244354 
	C1181.904541,264.289520 1179.707397,264.948151 1178.381714,266.114838 
	C1167.340454,275.831940 1156.395752,285.661469 1145.551025,295.598206 
	C1130.891846,309.030212 1116.354614,322.595367 1101.745850,336.082489 
	C1099.637329,338.028992 1097.421875,339.859436 1095.320068,341.687714 
	C1091.556152,338.836945 1088.291504,336.364349 1084.988037,333.743439 
	C1084.988037,333.743439 1084.857544,333.663208 1084.711792,333.338043 
	C1084.711792,333.338043 1084.385498,333.194519 1084.240845,332.938690 
	C1084.117432,332.780090 1083.962402,332.663574 1083.657471,332.353882 
	C1083.657471,332.353882 1083.444580,332.199036 1083.088379,331.692932 
	C1081.084351,330.084290 1079.080200,328.475677 1077.044312,326.955139 
	C1077.044312,326.955139 1077.131470,326.920563 1076.946045,326.450592 
	C1076.561523,326.128723 1076.177002,325.806854 1075.618164,325.265594 
	C1075.618164,325.265594 1075.359741,325.157074 1075.216431,324.914734 
	C1075.094727,324.766479 1074.945068,324.656281 1074.632446,324.349396 
	C1074.632446,324.349396 1074.397949,324.213989 1074.241821,323.938385 
	C1074.109497,323.766266 1073.941895,323.641663 1073.632568,323.404968 
	C1073.632568,323.404968 1073.510498,323.257019 1073.223877,322.815643 
	C1072.818848,322.553589 1072.413818,322.291534 1071.970459,321.971985 
	C1071.970459,321.971985 1071.909912,322.005249 1071.479858,321.522675 
	C1070.001343,320.291962 1068.522827,319.061249 1066.925171,317.393188 
	C1066.750244,317.111542 1066.497070,316.966644 1065.969849,316.480591 
	C1065.579712,316.148956 1065.189575,315.817352 1064.645630,315.282257 
	C1064.645630,315.282257 1064.427856,315.149170 1064.067505,314.642975 
	C1062.061890,313.019562 1060.056396,311.396179 1057.942871,309.356903 
	C1057.777222,309.088837 1057.536743,308.953064 1056.909180,308.339264 
	C1043.910645,296.051941 1031.021973,283.644928 1017.847412,271.549377 
	C1013.844238,267.874084 1010.143372,263.719391 1003.478088,263.921783 
	C985.842102,264.457306 968.184631,264.280701 950.536072,264.432861 
	C949.999329,264.437500 949.466919,264.944275 948.541626,265.416382 
	C956.531738,272.964142 964.084290,280.373688 971.932068,287.455963 
	C989.520386,303.328613 1007.256775,319.037170 1024.930298,334.815430 
	C1031.965576,341.096344 1038.994019,347.384857 1046.327026,354.290131 
	C1048.590820,356.181091 1050.854614,358.072052 1053.408691,360.581116 
	C1053.534790,362.056671 1054.307983,363.980835 1053.658081,364.918457 
	C1052.094482,367.173859 1049.864136,368.967010 1047.360474,371.077637 
	C1040.839966,376.958008 1034.286255,382.802032 1027.804932,388.725372 
	C1007.834961,406.976532 987.870911,425.234283 967.952148,443.541229 
	C961.528503,449.445099 955.252197,455.509338 948.908508,461.500153 
	C949.099976,461.893677 949.291443,462.287201 949.482910,462.680725 
	C950.999084,462.491150 952.515259,462.301544 954.919067,462.341278 
	C958.260254,462.275635 961.601379,462.209991 965.508728,462.524689 
	C978.799377,462.640869 992.092773,462.931335 1005.378113,462.718781 
	C1007.882507,462.678680 1010.760620,461.116974 1012.766907,459.427124 
	C1019.089600,454.101501 1025.103271,448.406708 1031.192139,442.806580 
	C1038.009033,436.536804 1044.777588,430.214294 1051.914307,423.847595 
	C1051.914307,423.847595 1052.002686,423.505157 1052.304443,423.505402 
	C1052.516602,423.399567 1052.597534,423.230713 1052.888184,422.933990 
	C1052.888184,422.933990 1052.981689,422.599609 1053.322266,422.567169 
M263.440613,461.836334 
	C263.440613,461.836334 263.567871,461.909821 264.278534,462.194885 
	C268.471985,461.541779 267.028687,458.483154 267.153351,455.083527 
	C267.156708,424.839050 267.187347,394.594574 267.150787,364.350159 
	C267.134918,351.235229 266.980560,338.120483 267.098358,324.263153 
	C266.996429,323.505493 266.894531,322.747833 266.947571,321.241730 
	C267.338928,320.149078 267.730316,319.056396 268.279266,318.282410 
	C268.477631,318.427460 268.699707,318.500336 269.547546,318.946808 
	C270.941437,320.218811 272.270111,321.572174 273.739075,322.750610 
	C295.028625,339.829834 316.366058,356.849548 337.634308,373.955200 
	C373.178955,402.543121 408.674896,431.191650 444.231262,459.765015 
	C445.598358,460.863678 447.370026,462.138306 448.969818,462.161011 
	C462.412689,462.352173 475.859467,462.269836 489.595703,462.269836 
	C489.595703,396.128235 489.595703,330.575470 489.595703,264.848755 
	C475.412781,264.848755 461.365540,264.848755 446.947388,264.848755 
	C446.947388,312.588409 446.947388,359.968994 446.947388,408.406555 
	C444.214630,406.235779 442.213959,404.657288 440.224579,403.064667 
	C412.414551,380.800293 384.619812,358.516815 356.793365,336.272949 
	C327.664886,312.988190 298.515839,289.729126 269.327209,266.519897 
	C268.115540,265.556427 266.414368,264.676239 264.935120,264.666351 
	C253.619690,264.590576 242.302734,264.740601 230.189789,264.532410 
	C228.796783,264.637390 227.403763,264.742340 225.074615,264.742737 
	C224.732193,267.582855 224.095932,270.422455 224.091003,273.263153 
	C224.003555,323.718201 223.991547,374.173370 223.966507,424.628510 
	C223.960358,437.050140 223.965591,449.471802 223.965591,462.054657 
	C227.402725,462.054657 230.192398,462.054657 233.340454,462.310822 
	C233.896912,462.216156 234.453384,462.121490 235.906082,462.252319 
	C239.599869,462.180847 243.293655,462.109375 247.674133,462.307220 
	C250.120148,462.215637 252.566147,462.124054 255.846848,462.256042 
	C257.844391,462.161011 259.841919,462.066010 262.328430,462.170654 
	C262.654755,462.079865 262.981079,461.989075 263.440613,461.836334 
M1684.877319,413.715240 
	C1684.958862,416.129852 1685.040405,418.544495 1684.945923,421.886932 
	C1685.010742,429.604462 1685.075562,437.322021 1684.869873,445.790253 
	C1684.869873,451.221375 1684.869873,456.652496 1684.869873,462.297485 
	C1698.305054,462.297485 1711.115967,462.391388 1723.920410,462.148804 
	C1725.169434,462.125122 1726.379272,460.026733 1727.810303,458.054901 
	C1727.753418,453.742737 1727.696411,449.430573 1727.896973,444.349030 
	C1727.804810,440.517944 1727.712524,436.686859 1727.820679,431.959106 
	C1727.750488,426.348724 1727.680298,420.738373 1727.862549,414.344513 
	C1727.766846,409.848267 1727.671021,405.351990 1727.749634,400.175262 
	C1727.715820,376.820038 1727.681885,353.464783 1727.874268,329.494446 
	C1727.806885,328.652191 1727.739380,327.809906 1727.820679,326.095001 
	C1727.820679,323.520325 1727.820679,320.945648 1727.820679,317.944336 
	C1729.362183,318.781708 1730.433594,319.170258 1731.271973,319.847412 
	C1754.577271,338.670258 1777.851440,357.531555 1801.146362,376.367401 
	C1835.458008,404.111328 1869.753418,431.875732 1904.172363,459.486023 
	C1906.169067,461.087769 1909.187378,462.089264 1911.767578,462.169189 
	C1921.086914,462.457764 1930.421997,462.229614 1939.751221,462.202972 
	C1943.167358,462.193237 1946.583618,462.201385 1950.021240,462.201385 
	C1950.021240,395.901947 1950.021240,330.465302 1950.021240,264.922302 
	C1935.779785,264.922302 1921.736206,264.922302 1907.176025,264.922302 
	C1907.176025,312.654877 1907.176025,359.996429 1907.176025,407.720459 
	C1906.176392,407.279724 1905.696777,407.176727 1905.354980,406.902069 
	C1875.636963,383.025970 1845.967529,359.089172 1816.210327,335.262024 
	C1787.620117,312.369354 1758.950928,289.575287 1730.264771,266.802948 
	C1728.914307,265.730927 1727.067261,264.668793 1725.443359,264.656525 
	C1714.296143,264.572083 1703.146851,264.769073 1691.192139,264.614655 
	C1689.794922,264.723511 1688.397705,264.832367 1686.114380,264.776093 
	C1685.741577,265.414703 1685.043335,266.053772 1685.044189,266.691803 
	C1685.060913,278.460602 1685.161377,290.229279 1685.018311,302.900787 
	C1685.082153,306.934448 1685.145874,310.968109 1684.977661,315.898865 
	C1685.032227,319.612396 1685.086792,323.325897 1684.877930,327.781464 
	C1684.962891,331.839722 1685.047729,335.897980 1684.941650,340.881866 
	C1685.009277,364.934540 1685.076904,388.987183 1684.877319,413.715240 
M1523.497314,423.255157 
	C1475.348999,423.242523 1427.200562,423.229950 1379.052246,423.217316 
	C1368.380371,423.214508 1364.241089,419.157227 1364.205444,408.470825 
	C1364.117188,381.982605 1364.063110,355.494232 1364.028931,329.005890 
	C1364.001465,307.698120 1364.023315,286.390289 1364.023315,264.800659 
	C1349.688110,264.800659 1335.608154,264.800659 1321.144897,264.800659 
	C1321.144897,268.052582 1321.144531,271.022125 1321.144897,273.991669 
	C1321.152100,320.641266 1321.701050,367.299500 1320.959961,413.937195 
	C1320.526733,441.201538 1342.251343,462.892792 1369.156738,462.509888 
	C1427.956177,461.673035 1486.786865,461.569702 1545.581421,462.559662 
	C1570.440430,462.978180 1593.560181,440.626404 1593.137207,414.642090 
	C1592.402466,369.503784 1592.937988,324.344849 1592.940796,279.194550 
	C1592.941162,274.433624 1592.940918,269.672699 1592.940918,264.893799 
	C1578.383789,264.893799 1564.320679,264.893799 1550.051880,264.893799 
	C1550.051880,266.275543 1550.052612,267.263641 1550.051880,268.251740 
	C1550.019165,315.065887 1549.984497,361.880035 1549.954712,408.694183 
	C1549.948730,418.042358 1545.262329,422.946045 1535.990479,423.183899 
	C1532.160767,423.282166 1528.327148,423.237701 1523.497314,423.255157 
M771.713318,462.259613 
	C804.315369,462.259613 836.917419,462.259613 869.856934,462.259613 
	C869.856934,449.654755 869.856934,437.605408 869.856934,425.476318 
	C774.039795,425.476318 678.508179,425.476318 582.925537,425.476318 
	C582.925537,437.876740 582.925537,449.925873 582.925537,462.265320 
	C645.839111,462.265320 708.301147,462.265320 771.713318,462.259613 
M851.499146,264.513794 
	C761.924866,264.513794 672.350525,264.513794 582.885254,264.513794 
	C582.885254,276.979614 582.885254,288.586914 582.885254,300.215942 
	C678.740967,300.215942 774.265991,300.215942 869.739746,300.215942 
	C869.739746,288.124786 869.739746,276.537445 869.739746,264.512268 
	C863.780640,264.512268 858.139465,264.512268 851.499146,264.513794 
M616.500183,344.791748 
	C605.353271,344.791748 594.206421,344.791748 582.913818,344.791748 
	C582.913818,356.960907 582.913818,368.717346 582.913818,380.525879 
	C678.770630,380.525879 774.297241,380.525879 869.924072,380.525879 
	C869.924072,368.508606 869.924072,356.906067 869.924072,345.380127 
	C869.431946,345.154968 869.145386,344.909119 868.858765,344.908936 
	C785.072571,344.859558 701.286438,344.827148 616.500183,344.791748 
z"/>
<path fill="#FCFCFC" opacity="1.000000" stroke="none" 
	d="
M232.982086,462.054657 
	C230.192398,462.054657 227.402725,462.054657 223.965591,462.054657 
	C223.965591,449.471802 223.960358,437.050140 223.966507,424.628510 
	C223.991547,374.173370 224.003555,323.718201 224.091003,273.263153 
	C224.095932,270.422455 224.732193,267.582855 225.540527,265.273743 
	C226.005630,328.567505 225.986588,391.330322 226.090332,454.092896 
	C226.093506,456.012177 227.374390,457.929321 228.059586,459.847473 
	C228.706329,457.890076 229.914703,455.933685 229.918137,453.975159 
	C230.018814,396.539886 229.972244,339.104401 230.042465,281.669037 
	C230.049332,276.052460 230.657288,270.436584 230.986252,264.820404 
	C242.302734,264.740601 253.619690,264.590576 264.935120,264.666351 
	C266.414368,264.676239 268.115540,265.556427 269.327209,266.519897 
	C298.515839,289.729126 327.664886,312.988190 356.793365,336.272949 
	C384.619812,358.516815 412.414551,380.800293 440.224579,403.064667 
	C442.213959,404.657288 444.214630,406.235779 446.947388,408.406555 
	C446.947388,359.968994 446.947388,312.588409 446.947388,264.848755 
	C461.365540,264.848755 475.412781,264.848755 489.595703,264.848755 
	C489.595703,330.575470 489.595703,396.128235 489.595703,462.269836 
	C475.859467,462.269836 462.412689,462.352173 448.969818,462.161011 
	C447.370026,462.138306 445.598358,460.863678 444.231262,459.765015 
	C408.674896,431.191650 373.178955,402.543121 337.634308,373.955200 
	C316.366058,356.849548 295.028625,339.829834 273.739075,322.750610 
	C272.270111,321.572174 270.941437,320.218811 269.154175,318.576050 
	C268.580811,318.037323 268.367798,317.956787 268.121704,317.963745 
	C267.730316,319.056396 267.338928,320.149078 266.516754,321.566650 
	C264.588745,321.969879 263.091583,322.048157 261.594391,322.126434 
	C261.793213,323.709930 261.992065,325.293427 262.267944,327.490662 
	C264.418549,326.334198 265.653839,325.669922 266.889130,325.005676 
	C266.980560,338.120483 267.134918,351.235229 267.150787,364.350159 
	C267.187347,394.594574 267.156708,424.839050 266.694580,455.472168 
	C265.491608,454.721313 264.747437,453.581848 263.894958,452.276642 
	C260.296112,455.752441 260.615021,458.790314 261.839478,461.971008 
	C259.841919,462.066010 257.844391,462.161011 255.163956,461.856110 
	C251.983185,461.650085 249.485321,461.843994 246.987442,462.037903 
	C243.293655,462.109375 239.599869,462.180847 235.310547,461.908630 
	C234.137375,461.728210 233.559738,461.891449 232.982086,462.054657 
M264.991852,403.061798 
	C264.651672,402.224762 264.311493,401.387695 263.971344,400.550659 
	C263.347839,401.183563 262.187744,401.821228 262.193298,402.448547 
	C262.218048,405.237610 262.815430,408.027405 262.772156,410.810181 
	C262.604584,421.589966 262.237244,432.366577 262.037903,443.146088 
	C262.008881,444.714600 262.488342,446.292511 262.732544,447.866089 
	C263.486664,447.826569 264.240784,447.787079 264.994904,447.747559 
	C264.994904,433.148468 264.994904,418.549347 264.991852,403.061798 
M264.995117,382.508667 
	C264.995117,377.907196 264.995117,373.305695 264.995117,368.704224 
	C264.520020,368.729340 264.044952,368.754456 263.569855,368.779572 
	C261.286530,372.939087 261.300171,393.598175 263.650421,396.799469 
	C264.016357,396.492950 264.679749,396.202271 264.691589,395.887207 
	C264.846436,391.759796 264.909210,387.628937 264.995117,382.508667 
M264.546021,356.523804 
	C264.546021,353.219879 264.546021,349.915924 264.546021,346.612000 
	C264.040527,346.620880 263.535065,346.629761 263.029572,346.638641 
	C263.029572,353.314697 263.029572,359.990753 263.029572,366.666809 
	C263.585571,366.679688 264.141602,366.692596 264.697601,366.705475 
	C264.697601,363.589142 264.697601,360.472839 264.546021,356.523804 
M261.954407,341.512878 
	C262.602448,342.101807 263.624054,343.313446 263.840790,343.183411 
	C266.027954,341.871338 265.296387,335.019440 262.184692,332.891541 
	C262.044403,335.791992 261.924255,338.275635 261.954407,341.512878 
z"/>
<path fill="#FCFCFC" opacity="1.000000" stroke="none" 
	d="
M1727.639526,445.118408 
	C1727.696411,449.430573 1727.753418,453.742737 1727.286011,458.532593 
	C1724.320435,459.675995 1721.906128,460.757721 1719.432129,460.918365 
	C1714.683594,461.226624 1709.896729,461.141632 1705.134277,460.976929 
	C1700.748779,460.825226 1696.374390,460.354736 1691.995605,459.605164 
	C1691.997314,454.608551 1691.999634,450.031433 1691.999756,445.454285 
	C1692.000122,426.037018 1692.080811,406.619354 1691.980469,387.202606 
	C1691.841797,360.393524 1691.459229,333.585449 1691.393921,306.776367 
	C1691.359985,292.809967 1691.781982,278.842499 1691.998169,264.875488 
	C1703.146851,264.769073 1714.296143,264.572083 1725.443359,264.656525 
	C1727.067261,264.668793 1728.914307,265.730927 1730.264771,266.802948 
	C1758.950928,289.575287 1787.620117,312.369354 1816.210327,335.262024 
	C1845.967529,359.089172 1875.636963,383.025970 1905.354980,406.902069 
	C1905.696777,407.176727 1906.176392,407.279724 1907.176025,407.720459 
	C1907.176025,359.996429 1907.176025,312.654877 1907.176025,264.922302 
	C1921.736206,264.922302 1935.779785,264.922302 1950.021240,264.922302 
	C1950.021240,330.465302 1950.021240,395.901947 1950.021240,462.201385 
	C1946.583618,462.201385 1943.167358,462.193237 1939.751221,462.202972 
	C1930.421997,462.229614 1921.086914,462.457764 1911.767578,462.169189 
	C1909.187378,462.089264 1906.169067,461.087769 1904.172363,459.486023 
	C1869.753418,431.875732 1835.458008,404.111328 1801.146362,376.367401 
	C1777.851440,357.531555 1754.577271,338.670258 1731.271973,319.847412 
	C1730.433594,319.170258 1729.362183,318.781708 1727.820679,317.944336 
	C1727.820679,320.945648 1727.820679,323.520325 1727.422119,326.434357 
	C1726.474487,325.584717 1725.925537,324.395721 1725.376709,323.206726 
	C1724.901245,323.484253 1724.425781,323.761749 1723.950317,324.039276 
	C1725.182861,326.062683 1726.415527,328.086121 1727.648071,330.109558 
	C1727.681885,353.464783 1727.715820,376.820038 1727.294922,400.715027 
	C1726.141968,405.932190 1722.466309,410.774811 1727.610107,415.127991 
	C1727.680298,420.738373 1727.750488,426.348724 1727.356934,432.578369 
	C1726.139160,434.602966 1725.208374,435.943695 1724.667236,437.426605 
	C1723.444092,440.777740 1723.133301,443.917969 1727.639526,445.118408 
M1725.026245,336.095123 
	C1725.144775,336.384674 1725.259155,336.676147 1725.395142,336.957275 
	C1725.401001,336.969421 1725.698486,336.888672 1725.699219,336.848022 
	C1725.717529,335.924133 1725.713379,334.999756 1725.713379,334.075500 
	C1725.552002,334.084167 1725.390625,334.092834 1725.229126,334.101532 
	C1725.156982,334.567749 1725.084717,335.033997 1725.026245,336.095123 
M1725.947998,352.720673 
	C1725.707642,352.519379 1725.467285,352.318085 1725.226807,352.116821 
	C1725.231934,352.707367 1725.237183,353.297943 1725.242310,353.888489 
	C1725.478271,353.676453 1725.714233,353.464417 1725.947998,352.720673 
z"/>
<path fill="#FBFBFB" opacity="1.000000" stroke="none" 
	d="
M1523.996338,423.256653 
	C1528.327148,423.237701 1532.160767,423.282166 1535.990479,423.183899 
	C1545.262329,422.946045 1549.948730,418.042358 1549.954712,408.694183 
	C1549.984497,361.880035 1550.019165,315.065887 1550.051880,268.251740 
	C1550.052612,267.263641 1550.051880,266.275543 1550.051880,264.893799 
	C1564.320679,264.893799 1578.383789,264.893799 1592.940918,264.893799 
	C1592.940918,269.672699 1592.941162,274.433624 1592.940796,279.194550 
	C1592.937988,324.344849 1592.402466,369.503784 1593.137207,414.642090 
	C1593.560181,440.626404 1570.440430,462.978180 1545.581421,462.559662 
	C1486.786865,461.569702 1427.956177,461.673035 1369.156738,462.509888 
	C1342.251343,462.892792 1320.526733,441.201538 1320.959961,413.937195 
	C1321.701050,367.299500 1321.152100,320.641266 1321.144897,273.991669 
	C1321.144531,271.022125 1321.144897,268.052582 1321.144897,264.800659 
	C1335.608154,264.800659 1349.688110,264.800659 1364.023315,264.800659 
	C1364.023315,286.390289 1364.001465,307.698120 1364.028931,329.005890 
	C1364.063110,355.494232 1364.117188,381.982605 1364.205444,408.470825 
	C1364.241089,419.157227 1368.380371,423.214508 1379.052246,423.217316 
	C1427.200562,423.229950 1475.348999,423.242523 1523.996338,423.256653 
z"/>
<path fill="#FCFCFC" opacity="1.000000" stroke="none" 
	d="
M771.238220,462.262451 
	C708.301147,462.265320 645.839111,462.265320 582.925537,462.265320 
	C582.925537,449.925873 582.925537,437.876740 582.925537,425.476318 
	C678.508179,425.476318 774.039795,425.476318 869.856934,425.476318 
	C869.856934,437.605408 869.856934,449.654755 869.856934,462.259613 
	C836.917419,462.259613 804.315369,462.259613 771.238220,462.262451 
z"/>
<path fill="#FAFAFA" opacity="1.000000" stroke="none" 
	d="
M851.998657,264.513031 
	C858.139465,264.512268 863.780640,264.512268 869.739746,264.512268 
	C869.739746,276.537445 869.739746,288.124786 869.739746,300.215942 
	C774.265991,300.215942 678.740967,300.215942 582.885254,300.215942 
	C582.885254,288.586914 582.885254,276.979614 582.885254,264.513794 
	C672.350525,264.513794 761.924866,264.513794 851.998657,264.513031 
z"/>
<path fill="#FCFCFC" opacity="1.000000" stroke="none" 
	d="
M617.000244,344.793030 
	C701.286438,344.827148 785.072571,344.859558 868.858765,344.908936 
	C869.145386,344.909119 869.431946,345.154968 869.924072,345.380127 
	C869.924072,356.906067 869.924072,368.508606 869.924072,380.525879 
	C774.297241,380.525879 678.770630,380.525879 582.913818,380.525879 
	C582.913818,368.717346 582.913818,356.960907 582.913818,344.791748 
	C594.206421,344.791748 605.353271,344.791748 617.000244,344.793030 
z"/>
<path fill="#B17CEE" opacity="1.000000" stroke="none" 
	d="
M1085.026855,333.891693 
	C1088.291504,336.364349 1091.556152,338.836945 1095.320068,341.687714 
	C1097.421875,339.859436 1099.637329,338.028992 1101.745850,336.082489 
	C1116.354614,322.595367 1130.891846,309.030212 1145.551025,295.598206 
	C1156.395752,285.661469 1167.340454,275.831940 1178.381714,266.114838 
	C1179.707397,264.948151 1181.904541,264.289520 1183.718872,264.244354 
	C1191.195312,264.058319 1198.680176,264.199799 1206.905273,264.506836 
	C1209.400513,264.688782 1211.152466,264.584778 1212.904419,264.480774 
	C1217.957764,264.446045 1223.011108,264.411346 1228.520508,264.793976 
	C1228.987549,265.792633 1228.998657,266.373932 1228.565186,266.972046 
	C1225.750610,267.008240 1223.380371,267.027649 1220.576416,267.032532 
	C1217.749512,267.671570 1215.356567,268.325134 1212.594238,268.976257 
	C1211.486694,268.976440 1210.748169,268.979126 1209.709229,268.691956 
	C1201.389160,268.282043 1193.369385,268.106506 1185.350098,268.127808 
	C1184.551147,268.129913 1183.755371,269.330322 1182.636475,270.117676 
	C1173.024414,273.552368 1168.588135,282.671997 1160.674805,288.038391 
	C1159.254395,289.050720 1158.161987,290.035309 1156.763428,291.166260 
	C1146.475708,300.530579 1136.568726,309.831085 1126.488525,318.939728 
	C1118.775757,325.909058 1110.982300,332.804779 1102.942139,339.388000 
	C1099.699829,342.042694 1095.813843,344.813538 1091.277222,341.604919 
	C1084.948242,337.128571 1078.442871,332.837708 1072.523315,327.860626 
	C1063.013184,319.864563 1053.812134,311.489227 1044.682617,303.055389 
	C1035.931763,294.971161 1027.707275,286.297791 1018.711487,278.506714 
	C1014.574219,274.923553 1009.373840,271.080109 1004.258423,270.416718 
	C992.796265,268.930176 981.086365,269.228790 969.475037,269.153198 
	C967.715332,269.141754 965.943298,271.020752 964.177002,272.025330 
	C965.262207,273.576263 966.099854,275.402252 967.470703,276.635742 
	C981.872314,289.594727 996.385742,302.429382 1010.792664,315.382568 
	C1012.867065,317.247620 1014.329956,319.802277 1016.435669,321.621307 
	C1030.197144,333.509277 1043.898926,345.442230 1054.680420,359.997162 
	C1053.951416,359.980682 1053.534912,359.971863 1053.118408,359.963043 
	C1050.854614,358.072052 1048.590820,356.181091 1046.154297,353.635864 
	C1045.552979,352.127991 1045.323853,351.058441 1044.666992,350.452148 
	C1025.154419,332.442291 1005.574524,314.505463 986.069824,296.487213 
	C981.462158,292.230652 977.232727,287.559601 972.563110,283.376251 
	C967.147644,278.524841 961.413147,274.030731 955.887939,269.298828 
	C955.156250,268.672150 954.841309,267.558777 953.859924,265.843231 
	C961.725952,266.263794 968.643127,266.813019 975.568848,266.959076 
	C984.482117,267.147034 993.404053,266.913544 1002.317749,267.090240 
	C1004.346619,267.130463 1006.783997,267.559814 1008.305176,268.744812 
	C1016.973877,275.497681 1025.580933,282.349701 1033.894409,289.531952 
	C1040.424927,295.173798 1046.442749,301.405609 1052.833374,307.215973 
	C1053.921753,308.205505 1055.740356,308.392059 1057.221558,308.949585 
	C1057.536743,308.953064 1057.777222,309.088837 1057.995728,309.932587 
	C1059.571167,312.885315 1060.351318,316.282715 1064.427856,315.149170 
	C1064.427856,315.149170 1064.645630,315.282257 1064.594238,315.693420 
	C1065.083740,316.389221 1065.624756,316.673859 1066.165649,316.958496 
	C1066.497070,316.966644 1066.750244,317.111542 1066.997070,317.977264 
	C1068.682739,319.709320 1070.296265,320.857269 1071.909912,322.005249 
	C1071.909912,322.005249 1071.970459,321.971985 1072.024048,322.321014 
	C1072.555298,322.865723 1073.032837,323.061371 1073.510498,323.257019 
	C1073.510498,323.257019 1073.632568,323.404968 1073.559814,323.745239 
	C1073.790649,324.128357 1074.094238,324.171173 1074.397949,324.213989 
	C1074.397949,324.213989 1074.632446,324.349396 1074.564209,324.713501 
	C1074.783936,325.104126 1075.071777,325.130585 1075.359741,325.157074 
	C1075.359741,325.157074 1075.618164,325.265594 1075.576538,325.680786 
	C1076.067139,326.370850 1076.599243,326.645721 1077.131470,326.920563 
	C1077.131470,326.920563 1077.044312,326.955139 1077.056641,327.272095 
	C1078.637329,329.895874 1079.450806,333.246582 1083.444580,332.199036 
	C1083.444580,332.199036 1083.657471,332.353882 1083.580444,332.719788 
	C1083.797485,333.121979 1084.091431,333.158234 1084.385498,333.194519 
	C1084.385498,333.194519 1084.711792,333.338043 1084.622803,333.618225 
	C1084.698120,333.896179 1084.862427,333.893921 1085.026855,333.891693 
z"/>
<path fill="#FAFAFA" opacity="1.000000" stroke="none" 
	d="
M1691.595215,264.745056 
	C1691.781982,278.842499 1691.359985,292.809967 1691.393921,306.776367 
	C1691.459229,333.585449 1691.841797,360.393524 1691.980469,387.202606 
	C1692.080811,406.619354 1692.000122,426.037018 1691.999756,445.454285 
	C1691.999634,450.031433 1691.997314,454.608551 1691.751221,459.601166 
	C1691.506592,460.016632 1691.017944,460.006256 1690.594604,460.002136 
	C1685.898315,460.194397 1687.035400,456.984039 1687.033203,454.753479 
	C1686.988892,410.016632 1687.021362,365.279694 1686.924194,320.543060 
	C1686.920166,318.694733 1685.806396,316.848816 1685.209717,315.001770 
	C1685.145874,310.968109 1685.082153,306.934448 1685.505859,302.330994 
	C1686.328857,300.066254 1686.940674,298.373688 1686.955078,296.676056 
	C1687.044556,286.098389 1687.000244,275.519623 1687.000488,264.941223 
	C1688.397705,264.832367 1689.794922,264.723511 1691.595215,264.745056 
z"/>
<path fill="#F2F2F2" opacity="1.000000" stroke="none" 
	d="
M230.588013,264.676392 
	C230.657288,270.436584 230.049332,276.052460 230.042465,281.669037 
	C229.972244,339.104401 230.018814,396.539886 229.918137,453.975159 
	C229.914703,455.933685 228.706329,457.890076 228.059586,459.847473 
	C227.374390,457.929321 226.093506,456.012177 226.090332,454.092896 
	C225.986588,391.330322 226.005630,328.567505 226.008606,265.326019 
	C227.403763,264.742340 228.796783,264.637390 230.588013,264.676392 
z"/>
<path fill="#AA77E0" opacity="1.000000" stroke="none" 
	d="
M1134.874878,361.876251 
	C1136.967773,364.549866 1138.754639,367.551575 1141.207153,369.839844 
	C1151.372925,379.325012 1161.699097,388.639801 1172.042480,397.932556 
	C1186.940186,411.317108 1201.977783,424.546661 1216.810059,438.002899 
	C1224.916992,445.357758 1232.729370,453.037720 1240.647827,460.599121 
	C1240.945068,460.882935 1240.961182,461.461304 1241.317383,462.528778 
	C1239.310425,462.671112 1237.576660,462.888428 1235.841187,462.902557 
	C1219.191284,463.038055 1202.540771,463.201019 1185.890869,463.175507 
	C1183.704468,463.172150 1181.519531,462.153564 1179.244629,461.243591 
	C1179.155151,460.882019 1179.258545,460.804688 1179.596924,461.025360 
	C1194.900635,461.246033 1209.866089,461.246033 1224.311646,461.246033 
	C1223.887085,461.023315 1222.938599,460.525818 1221.998779,459.786316 
	C1222.007446,459.544250 1222.014648,459.059937 1222.412598,459.052887 
	C1225.055908,459.607666 1227.277100,460.400757 1229.556396,460.640686 
	C1230.832275,460.774963 1232.204468,459.992157 1233.533325,459.622559 
	C1232.933350,458.555817 1232.562988,457.231812 1231.699097,456.460846 
	C1217.757935,444.018494 1203.715698,431.689240 1189.790039,419.229675 
	C1186.106689,415.934052 1182.816650,412.203094 1179.210205,408.816559 
	C1170.527954,400.663971 1161.706543,392.659271 1153.054321,384.475372 
	C1146.284424,378.071991 1139.684082,371.489319 1133.012817,364.615448 
	C1133.027832,363.502960 1133.038330,362.761322 1133.348145,362.010437 
	C1134.042236,361.945862 1134.436890,361.890533 1134.842651,361.845367 
	C1134.853638,361.855499 1134.874878,361.876251 1134.874878,361.876251 
z"/>
<path fill="#BD94E7" opacity="1.000000" stroke="none" 
	d="
M1057.065430,308.644409 
	C1055.740356,308.392059 1053.921753,308.205505 1052.833374,307.215973 
	C1046.442749,301.405609 1040.424927,295.173798 1033.894409,289.531952 
	C1025.580933,282.349701 1016.973877,275.497681 1008.305176,268.744812 
	C1006.783997,267.559814 1004.346619,267.130463 1002.317749,267.090240 
	C993.404053,266.913544 984.482117,267.147034 975.568848,266.959076 
	C968.643127,266.813019 961.725952,266.263794 953.859924,265.843231 
	C954.841309,267.558777 955.156250,268.672150 955.887939,269.298828 
	C961.413147,274.030731 967.147644,278.524841 972.563110,283.376251 
	C977.232727,287.559601 981.462158,292.230652 986.069824,296.487213 
	C1005.574524,314.505463 1025.154419,332.442291 1044.666992,350.452148 
	C1045.323853,351.058441 1045.552979,352.127991 1046.003662,353.325745 
	C1038.994019,347.384857 1031.965576,341.096344 1024.930298,334.815430 
	C1007.256775,319.037170 989.520386,303.328613 971.932068,287.455963 
	C964.084290,280.373688 956.531738,272.964142 948.541626,265.416382 
	C949.466919,264.944275 949.999329,264.437500 950.536072,264.432861 
	C968.184631,264.280701 985.842102,264.457306 1003.478088,263.921783 
	C1010.143372,263.719391 1013.844238,267.874084 1017.847412,271.549377 
	C1031.021973,283.644928 1043.910645,296.051941 1057.065430,308.644409 
z"/>
<path fill="#B17CEE" opacity="1.000000" stroke="none" 
	d="
M1167.094238,450.296478 
	C1159.098145,443.107056 1151.049194,435.975433 1143.117432,428.715729 
	C1128.327515,415.178894 1113.536743,401.641296 1098.918213,387.920776 
	C1096.225708,385.393555 1094.669067,385.451050 1091.996704,387.896515 
	C1079.539062,399.296539 1066.879639,410.476379 1053.859375,421.971985 
	C1053.285278,422.347412 1053.137085,422.477631 1052.981689,422.599609 
	C1052.981689,422.599609 1052.888184,422.933990 1052.643311,423.066711 
	C1052.285522,423.325928 1052.153687,423.427826 1052.002686,423.505157 
	C1052.002686,423.505157 1051.914307,423.847595 1051.420166,423.918640 
	C1050.278931,423.983215 1049.631958,423.976776 1049.025269,423.629700 
	C1050.073853,421.995514 1050.904419,420.497223 1052.120117,419.442688 
	C1058.490356,413.916656 1065.664307,409.128784 1071.201050,402.881012 
	C1077.189819,396.123169 1083.441895,390.092468 1091.064209,385.228088 
	C1094.654175,382.937103 1097.533203,383.128815 1100.582153,385.210663 
	C1103.032349,386.883698 1105.221924,388.958801 1107.429932,390.962494 
	C1115.379150,398.175842 1123.266235,405.457794 1131.216187,412.670349 
	C1141.397583,421.907318 1151.624756,431.093658 1161.815063,440.320801 
	C1164.585571,442.829468 1167.294312,445.406433 1169.630615,447.966034 
	C1168.160156,447.977539 1167.090576,447.975098 1165.915283,447.752045 
	C1165.612305,447.254211 1165.350586,447.066925 1164.964355,446.828491 
	C1164.810791,446.640198 1164.717041,446.593018 1164.623413,446.545837 
	C1164.740479,446.704102 1164.857422,446.862366 1165.085083,447.237793 
	C1165.397583,447.723450 1165.657959,447.911133 1166.074585,448.253448 
	C1166.479736,449.091461 1166.786987,449.693970 1167.094238,450.296478 
z"/>
<path fill="#BD94E7" opacity="1.000000" stroke="none" 
	d="
M954.031494,462.111969 
	C952.515259,462.301544 950.999084,462.491150 949.482910,462.680725 
	C949.291443,462.287201 949.099976,461.893677 948.908508,461.500153 
	C955.252197,455.509338 961.528503,449.445099 967.952148,443.541229 
	C987.870911,425.234283 1007.834961,406.976532 1027.804932,388.725372 
	C1034.286255,382.802032 1040.839966,376.958008 1047.624634,371.310120 
	C1045.279785,374.700439 1042.670776,377.858307 1040.046509,381.024780 
	C1040.031250,381.033447 1040.014282,381.061005 1039.668701,381.077942 
	C1035.694336,384.059326 1030.875000,386.113342 1031.010620,391.972473 
	C1031.006592,391.985352 1030.980591,391.991821 1030.620361,391.994873 
	C1029.163208,392.977783 1028.066284,393.957642 1026.979614,394.957764 
	C1026.989868,394.978088 1026.945679,394.967224 1026.585693,394.977417 
	C1024.474609,396.641602 1022.723511,398.295593 1020.985046,399.967438 
	C1020.997681,399.985291 1020.956665,399.971252 1020.593140,399.981171 
	C1018.139893,402.305847 1016.050049,404.620636 1013.843384,407.155579 
	C1013.520020,407.649811 1013.255005,407.843872 1012.572937,407.970703 
	C1008.827637,410.676819 1005.440796,413.370087 1001.845947,416.181458 
	C1001.378296,416.498871 1001.186707,416.750031 1000.749512,417.176392 
	C997.628967,420.531097 994.822083,423.762482 991.866638,427.276306 
	C990.830566,428.065643 989.942993,428.572571 988.699707,429.091431 
	C986.438965,430.371399 984.348145,431.431763 982.659485,432.941925 
	C973.381592,441.239349 964.158875,449.600555 955.059875,458.092529 
	C954.208313,458.887268 954.350586,460.746826 954.031494,462.111969 
z"/>
<path fill="#BD94E7" opacity="1.000000" stroke="none" 
	d="
M1048.984863,423.970306 
	C1049.631958,423.976776 1050.278931,423.983215 1051.246582,423.952209 
	C1044.777588,430.214294 1038.009033,436.536804 1031.192139,442.806580 
	C1025.103271,448.406708 1019.089600,454.101501 1012.766907,459.427124 
	C1010.760620,461.116974 1007.882507,462.678680 1005.378113,462.718781 
	C992.092773,462.931335 978.799377,462.640869 965.483154,462.023865 
	C970.189758,461.012909 974.913391,460.191620 979.656128,460.060516 
	C988.272827,459.822388 996.901428,460.040192 1005.523926,459.954437 
	C1007.113159,459.938629 1009.177063,459.919647 1010.203125,458.994263 
	C1015.583618,454.142242 1020.700684,448.998016 1025.927979,443.950745 
	C1025.946777,443.946167 1025.971313,443.921265 1026.317993,443.909393 
	C1034.101562,437.259827 1041.538574,430.622162 1048.982666,423.988464 
	C1048.989990,423.992401 1048.984863,423.970306 1048.984863,423.970306 
z"/>
<path fill="#B17CEE" opacity="1.000000" stroke="none" 
	d="
M1025.909302,443.955322 
	C1020.700684,448.998016 1015.583618,454.142242 1010.203125,458.994263 
	C1009.177063,459.919647 1007.113159,459.938629 1005.523926,459.954437 
	C996.901428,460.040192 988.272827,459.822388 979.656128,460.060516 
	C974.913391,460.191620 970.189758,461.012909 965.200073,461.833679 
	C961.601379,462.209991 958.260254,462.275635 954.475281,462.226624 
	C954.350586,460.746826 954.208313,458.887268 955.059875,458.092529 
	C964.158875,449.600555 973.381592,441.239349 982.659485,432.941925 
	C984.348145,431.431763 986.438965,430.371399 988.647339,429.426453 
	C983.216553,435.209717 977.507202,440.695953 971.741089,446.121918 
	C967.040039,450.545715 962.271179,454.897461 956.734192,460.019562 
	C966.058960,459.255676 974.053894,458.600708 982.365723,457.947266 
	C983.105408,457.947601 983.528076,457.946503 984.423584,457.972992 
	C990.835449,458.008087 996.804443,458.369415 1002.700256,457.868652 
	C1005.504578,457.630463 1008.399597,456.109161 1010.849609,454.538910 
	C1016.010681,451.231232 1020.905334,447.507996 1025.909302,443.955322 
z"/>
<path fill="#FCFCFC" opacity="1.000000" stroke="none" 
	d="
M1685.093628,315.450317 
	C1685.806396,316.848816 1686.920166,318.694733 1686.924194,320.543060 
	C1687.021362,365.279694 1686.988892,410.016632 1687.033203,454.753479 
	C1687.035400,456.984039 1685.898315,460.194397 1690.327026,460.286041 
	C1687.274414,461.720886 1685.954834,460.691620 1685.943848,457.194977 
	C1685.931152,453.142365 1685.429688,449.091278 1685.140259,445.039551 
	C1685.075562,437.322021 1685.010742,429.604462 1685.301025,421.151123 
	C1685.485474,417.956848 1685.314941,415.498352 1685.144531,413.039856 
	C1685.076904,388.987183 1685.009277,364.934540 1685.312622,340.119812 
	C1685.502808,335.251678 1685.322144,331.145538 1685.141479,327.039429 
	C1685.086792,323.325897 1685.032227,319.612396 1685.093628,315.450317 
z"/>
<path fill="#BD94E7" opacity="1.000000" stroke="none" 
	d="
M1235.838135,270.665009 
	C1224.311890,280.878265 1212.780273,291.085480 1201.263550,301.309509 
	C1198.718262,303.569153 1196.225830,305.888245 1193.393066,308.129150 
	C1193.077148,308.078278 1192.962891,307.972900 1192.976562,307.614136 
	C1193.727661,306.250031 1194.431396,305.217651 1195.209595,304.244720 
	C1197.133057,301.839630 1199.090454,299.461761 1201.180542,296.767456 
	C1204.703979,293.337921 1208.021362,290.145844 1211.471924,287.105225 
	C1217.269775,281.996399 1223.152344,276.983826 1229.178223,272.179565 
	C1231.517456,271.840576 1233.677856,271.252808 1235.838135,270.665009 
z"/>
<path fill="#E9E8E8" opacity="1.000000" stroke="none" 
	d="
M1685.005127,445.414917 
	C1685.429688,449.091278 1685.931152,453.142365 1685.943848,457.194977 
	C1685.954834,460.691620 1687.274414,461.720886 1690.750366,460.290161 
	C1691.017944,460.006256 1691.506592,460.016632 1691.750854,460.020630 
	C1696.374390,460.354736 1700.748779,460.825226 1705.134277,460.976929 
	C1709.896729,461.141632 1714.683594,461.226624 1719.432129,460.918365 
	C1721.906128,460.757721 1724.320435,459.675995 1727.184570,458.950867 
	C1726.379272,460.026733 1725.169434,462.125122 1723.920410,462.148804 
	C1711.115967,462.391388 1698.305054,462.297485 1684.869873,462.297485 
	C1684.869873,456.652496 1684.869873,451.221375 1685.005127,445.414917 
z"/>
<path fill="#BD94E7" opacity="1.000000" stroke="none" 
	d="
M1178.086792,322.036316 
	C1171.044067,328.594666 1164.002441,335.154205 1156.957397,341.710052 
	C1155.996582,342.604187 1155.018799,343.479919 1153.499023,344.650513 
	C1152.294922,344.960144 1151.640625,344.983398 1151.133057,344.706421 
	C1159.186768,337.266357 1167.093506,330.126434 1175.304443,322.864624 
	C1176.434814,322.507263 1177.260742,322.271820 1178.086792,322.036316 
z"/>
<path fill="#AA77E0" opacity="1.000000" stroke="none" 
	d="
M1150.986206,345.006622 
	C1151.640625,344.983398 1152.294922,344.960144 1153.277344,344.929138 
	C1147.576294,350.497955 1141.546997,356.074554 1135.196289,361.763672 
	C1134.874878,361.876251 1134.853638,361.855499 1134.905029,361.496948 
	C1138.906006,354.376221 1143.231567,347.987671 1150.986206,345.006622 
z"/>
<path fill="#FCFCFC" opacity="1.000000" stroke="none" 
	d="
M1686.557373,264.858643 
	C1687.000244,275.519623 1687.044556,286.098389 1686.955078,296.676056 
	C1686.940674,298.373688 1686.328857,300.066254 1685.618652,301.879578 
	C1685.161377,290.229279 1685.060913,278.460602 1685.044189,266.691803 
	C1685.043335,266.053772 1685.741577,265.414703 1686.557373,264.858643 
z"/>
<path fill="#AA77E0" opacity="1.000000" stroke="none" 
	d="
M1040.061768,381.016174 
	C1042.670776,377.858307 1045.279785,374.700439 1047.895752,371.244629 
	C1049.864136,368.967010 1052.094482,367.173859 1053.658081,364.918457 
	C1054.307983,363.980835 1053.534790,362.056671 1053.263550,360.272095 
	C1053.534912,359.971863 1053.951416,359.980682 1054.938477,360.105225 
	C1055.999268,360.486511 1056.489624,360.752075 1056.989258,361.415100 
	C1056.990723,362.873779 1056.982910,363.935028 1056.675293,365.141663 
	C1054.195801,367.951111 1052.252441,370.864471 1049.775391,373.215149 
	C1046.773193,376.063873 1043.319824,378.437164 1040.061768,381.016174 
z"/>
<path fill="#AA77E0" opacity="1.000000" stroke="none" 
	d="
M1236.111938,270.560760 
	C1233.677856,271.252808 1231.517456,271.840576 1229.226562,271.855042 
	C1230.226929,270.064362 1231.357910,268.847046 1232.868286,267.221161 
	C1231.182373,267.104980 1230.096069,267.030121 1229.009766,266.955261 
	C1228.998657,266.373932 1228.987549,265.792633 1228.968262,264.920776 
	C1231.065430,264.537262 1233.171021,264.444305 1235.637207,264.877930 
	C1236.907715,266.254669 1237.817627,267.104797 1238.727539,267.954956 
	C1237.947021,268.788818 1237.166382,269.622681 1236.111938,270.560760 
z"/>
<path fill="#F2F2F2" opacity="1.000000" stroke="none" 
	d="
M262.083954,462.070831 
	C260.615021,458.790314 260.296112,455.752441 263.894958,452.276642 
	C264.747437,453.581848 265.491608,454.721313 266.579926,455.928284 
	C267.028687,458.483154 268.471985,461.541779 263.995209,461.780823 
	C263.647003,461.246948 263.582153,461.127136 263.517273,461.007294 
	C263.447327,461.304291 263.377380,461.601288 263.307404,461.898285 
	C262.981079,461.989075 262.654755,462.079865 262.083954,462.070831 
M265.480408,458.584717 
	C265.480408,458.584717 265.417358,458.476685 265.480408,458.584717 
z"/>
<path fill="#E9E8E8" opacity="1.000000" stroke="none" 
	d="
M1727.768311,444.733704 
	C1723.133301,443.917969 1723.444092,440.777740 1724.667236,437.426605 
	C1725.208374,435.943695 1726.139160,434.602966 1727.256714,433.026733 
	C1727.712524,436.686859 1727.804810,440.517944 1727.768311,444.733704 
z"/>
<path fill="#E9E8E8" opacity="1.000000" stroke="none" 
	d="
M1727.736328,414.736267 
	C1722.466309,410.774811 1726.141968,405.932190 1727.207764,401.055298 
	C1727.671021,405.351990 1727.766846,409.848267 1727.736328,414.736267 
z"/>
<path fill="#F2F2F2" opacity="1.000000" stroke="none" 
	d="
M266.993744,324.634399 
	C265.653839,325.669922 264.418549,326.334198 262.267944,327.490662 
	C261.992065,325.293427 261.793213,323.709930 261.594391,322.126434 
	C263.091583,322.048157 264.588745,321.969879 266.439270,321.940857 
	C266.894531,322.747833 266.996429,323.505493 266.993744,324.634399 
z"/>
<path fill="#BD94E7" opacity="1.000000" stroke="none" 
	d="
M1190.089844,311.101318 
	C1187.595215,313.405487 1185.100586,315.709686 1182.317383,318.021851 
	C1182.028809,318.029816 1181.942627,317.955688 1181.964844,317.615295 
	C1182.646118,316.069611 1183.305176,314.864349 1184.218628,313.539429 
	C1185.000122,312.621582 1185.527100,311.823364 1186.442505,311.027771 
	C1187.868896,311.000366 1188.907104,310.970245 1189.981445,310.980316 
	C1190.017822,311.020508 1190.089844,311.101318 1190.089844,311.101318 
z"/>
<path fill="#E9E8E8" opacity="1.000000" stroke="none" 
	d="
M1685.009766,327.410461 
	C1685.322144,331.145538 1685.502808,335.251678 1685.408203,339.657013 
	C1685.047729,335.897980 1684.962891,331.839722 1685.009766,327.410461 
z"/>
<path fill="#BD94E7" opacity="1.000000" stroke="none" 
	d="
M1166.020996,447.972656 
	C1167.090576,447.975098 1168.160156,447.977539 1169.938721,448.140076 
	C1171.446045,450.179626 1172.244507,452.059113 1172.753174,453.836060 
	C1171.225464,453.104553 1169.987305,452.475555 1168.749268,451.846558 
	C1168.315063,451.564209 1167.880859,451.281891 1167.270508,450.648010 
	C1166.786987,449.693970 1166.479736,449.091461 1166.086792,448.243347 
	C1166.000977,447.997742 1166.020996,447.972626 1166.020996,447.972656 
z"/>
<path fill="#BD94E7" opacity="1.000000" stroke="none" 
	d="
M1083.266479,331.945984 
	C1079.450806,333.246582 1078.637329,329.895874 1077.072510,327.228088 
	C1079.080200,328.475677 1081.084351,330.084290 1083.266479,331.945984 
z"/>
<path fill="#BD94E7" opacity="1.000000" stroke="none" 
	d="
M1064.247681,314.896057 
	C1060.351318,316.282715 1059.571167,312.885315 1058.049683,310.140503 
	C1060.056396,311.396179 1062.061890,313.019562 1064.247681,314.896057 
z"/>
<path fill="#E9E8E8" opacity="1.000000" stroke="none" 
	d="
M1685.010864,413.377563 
	C1685.314941,415.498352 1685.485474,417.956848 1685.389038,420.687225 
	C1685.040405,418.544495 1684.958862,416.129852 1685.010864,413.377563 
z"/>
<path fill="#F2F2F2" opacity="1.000000" stroke="none" 
	d="
M247.330780,462.172546 
	C249.485321,461.843994 251.983185,461.650085 254.746613,461.744324 
	C252.566147,462.124054 250.120148,462.215637 247.330780,462.172546 
z"/>
<path fill="#BD94E7" opacity="1.000000" stroke="none" 
	d="
M1239.047607,267.755219 
	C1237.817627,267.104797 1236.907715,266.254669 1235.998413,265.020813 
	C1236.322388,264.578339 1236.645752,264.519592 1237.435913,264.679321 
	C1238.235596,264.814667 1238.568604,264.731537 1238.901489,264.648438 
	C1239.324829,264.587158 1239.748047,264.525879 1240.510742,264.456757 
	C1240.850098,264.448914 1240.787231,264.442169 1240.787231,264.442169 
	C1240.314087,265.479950 1239.840820,266.517731 1239.047607,267.755219 
z"/>
<path fill="#E9E8E8" opacity="1.000000" stroke="none" 
	d="
M1727.761230,329.802002 
	C1726.415527,328.086121 1725.182861,326.062683 1723.950317,324.039276 
	C1724.425781,323.761749 1724.901245,323.484253 1725.376709,323.206726 
	C1725.925537,324.395721 1726.474487,325.584717 1727.347656,326.870667 
	C1727.739380,327.809906 1727.806885,328.652191 1727.761230,329.802002 
z"/>
<path fill="#BD94E7" opacity="1.000000" stroke="none" 
	d="
M1071.694824,321.763947 
	C1070.296265,320.857269 1068.682739,319.709320 1067.056641,318.195923 
	C1068.522827,319.061249 1070.001343,320.291962 1071.694824,321.763947 
z"/>
<path fill="#B17CEE" opacity="1.000000" stroke="none" 
	d="
M1178.362061,321.945923 
	C1177.260742,322.271820 1176.434814,322.507263 1175.307861,322.504883 
	C1175.121094,318.283478 1177.718628,319.489960 1179.978149,319.956268 
	C1180.017700,320.005219 1180.092041,320.106689 1180.092041,320.106689 
	C1179.607056,320.689636 1179.122192,321.272552 1178.362061,321.945923 
z"/>
<path fill="#B17CEE" opacity="1.000000" stroke="none" 
	d="
M1168.799438,452.136658 
	C1169.987305,452.475555 1171.225464,453.104553 1172.741699,453.848999 
	C1173.019775,453.964417 1173.029297,453.980927 1173.124268,454.207520 
	C1173.415894,454.717682 1173.682739,454.896667 1174.018433,454.985474 
	C1174.017090,454.999817 1174.039795,454.978973 1174.028931,455.188293 
	C1174.018066,455.397614 1174.038574,455.816315 1173.865356,455.833771 
	C1173.692139,455.851227 1173.346558,455.894562 1173.346558,455.894592 
	C1171.847534,454.738647 1170.348511,453.582703 1168.799438,452.136658 
z"/>
<path fill="#AA77E0" opacity="1.000000" stroke="none" 
	d="
M1173.464111,456.177948 
	C1173.346558,455.894562 1173.692139,455.851227 1174.107788,455.896423 
	C1174.689941,455.952301 1174.856445,455.962982 1175.013916,455.984985 
	C1175.004883,455.996338 1175.017456,455.978485 1175.120239,456.204620 
	C1175.428101,456.708771 1175.697266,456.893127 1176.011719,456.987671 
	C1175.992676,456.991547 1176.016479,456.960480 1176.119385,457.184662 
	C1176.420166,457.685547 1176.679565,457.880432 1177.030029,458.277039 
	C1177.151978,458.926605 1177.244385,459.292664 1177.336670,459.631927 
	C1177.336548,459.605133 1177.353516,459.554321 1177.353516,459.554321 
	C1176.096313,458.523315 1174.838989,457.492340 1173.464111,456.177948 
z"/>
<path fill="#AA77E0" opacity="1.000000" stroke="none" 
	d="
M1212.501221,264.367126 
	C1211.152466,264.584778 1209.400513,264.688782 1207.370117,264.605042 
	C1208.760376,264.362701 1210.429199,264.308105 1212.501221,264.367126 
z"/>
<path fill="#BD94E7" opacity="1.000000" stroke="none" 
	d="
M1192.101929,309.095886 
	C1191.574707,309.733154 1191.047607,310.370453 1190.305176,311.054504 
	C1190.089844,311.101318 1190.017822,311.020508 1190.036621,310.666992 
	C1190.691284,309.859009 1191.327026,309.404510 1191.996094,308.987915 
	C1192.029297,309.025879 1192.101929,309.095886 1192.101929,309.095886 
z"/>
<path fill="#F2F2F2" opacity="1.000000" stroke="none" 
	d="
M233.161270,462.182739 
	C233.559738,461.891449 234.137375,461.728210 234.862427,461.795898 
	C234.453384,462.121490 233.896912,462.216156 233.161270,462.182739 
z"/>
<path fill="#AA77E0" opacity="1.000000" stroke="none" 
	d="
M1179.103027,460.920074 
	C1178.567749,460.665649 1178.084839,460.373138 1177.477661,459.817474 
	C1177.353516,459.554321 1177.336548,459.605133 1177.615723,459.722046 
	C1178.284546,459.900940 1178.674072,459.962952 1179.104248,460.221924 
	C1179.144897,460.418884 1179.258545,460.804688 1179.258545,460.804688 
	C1179.258545,460.804688 1179.155151,460.882019 1179.103027,460.920074 
z"/>
<path fill="#BD94E7" opacity="1.000000" stroke="none" 
	d="
M1066.067749,316.719543 
	C1065.624756,316.673859 1065.083740,316.389221 1064.671143,315.795166 
	C1065.189575,315.817352 1065.579712,316.148956 1066.067749,316.719543 
z"/>
<path fill="#BD94E7" opacity="1.000000" stroke="none" 
	d="
M1077.038818,326.685577 
	C1076.599243,326.645721 1076.067139,326.370850 1075.663696,325.790466 
	C1076.177002,325.806854 1076.561523,326.128723 1077.038818,326.685577 
z"/>
<path fill="#BD94E7" opacity="1.000000" stroke="none" 
	d="
M1073.367188,323.036316 
	C1073.032837,323.061371 1072.555298,322.865723 1072.043213,322.349731 
	C1072.413818,322.291534 1072.818848,322.553589 1073.367188,323.036316 
z"/>
<path fill="#FCFCFC" opacity="1.000000" stroke="none" 
	d="
M263.374023,461.867310 
	C263.377380,461.601288 263.447327,461.304291 263.517273,461.007294 
	C263.582153,461.127136 263.647003,461.246948 263.639893,461.638306 
	C263.567871,461.909821 263.440613,461.836334 263.374023,461.867310 
z"/>
<path fill="#BD94E7" opacity="1.000000" stroke="none" 
	d="
M1181.106201,319.098450 
	C1180.928955,319.379425 1180.751709,319.660400 1180.333252,320.024017 
	C1180.092041,320.106689 1180.017700,320.005219 1180.081665,319.735535 
	C1180.348633,319.187439 1180.619873,319.018555 1180.995605,318.994385 
	C1181.031982,319.029633 1181.106201,319.098450 1181.106201,319.098450 
z"/>
<path fill="#BD94E7" opacity="1.000000" stroke="none" 
	d="
M1074.319824,324.076172 
	C1074.094238,324.171173 1073.790649,324.128357 1073.613037,323.825073 
	C1073.941895,323.641663 1074.109497,323.766266 1074.319824,324.076172 
z"/>
<path fill="#BD94E7" opacity="1.000000" stroke="none" 
	d="
M1084.313232,333.066589 
	C1084.091431,333.158234 1083.797485,333.121979 1083.639526,332.837402 
	C1083.962402,332.663574 1084.117432,332.780090 1084.313232,333.066589 
z"/>
<path fill="#BD94E7" opacity="1.000000" stroke="none" 
	d="
M1075.288086,325.035889 
	C1075.071777,325.130585 1074.783936,325.104126 1074.631714,324.830872 
	C1074.945068,324.656281 1075.094727,324.766479 1075.288086,325.035889 
z"/>
<path fill="#BD94E7" opacity="1.000000" stroke="none" 
	d="
M1193.131226,308.134155 
	C1192.986450,308.446014 1192.787598,308.702026 1192.345337,309.026978 
	C1192.101929,309.095886 1192.029297,309.025879 1192.109375,308.775787 
	C1192.391235,308.263031 1192.649048,308.078766 1192.962891,307.972900 
	C1192.962891,307.972900 1193.077148,308.078278 1193.131226,308.134155 
z"/>
<path fill="#BD94E7" opacity="1.000000" stroke="none" 
	d="
M1052.153564,423.505280 
	C1052.153687,423.427826 1052.285522,423.325928 1052.472900,423.099121 
	C1052.597534,423.230713 1052.516602,423.399567 1052.153564,423.505280 
z"/>
<path fill="#BD94E7" opacity="1.000000" stroke="none" 
	d="
M1053.151978,422.583374 
	C1053.137085,422.477631 1053.285278,422.347412 1053.528564,422.103119 
	C1053.654785,422.255890 1053.551880,422.445862 1053.151978,422.583374 
z"/>
<path fill="#BD94E7" opacity="1.000000" stroke="none" 
	d="
M1085.007446,333.817566 
	C1084.862427,333.893921 1084.698120,333.896179 1084.695557,333.780823 
	C1084.857544,333.663208 1084.988037,333.743439 1085.007446,333.817566 
z"/>
<path fill="#AA77E0" opacity="1.000000" stroke="none" 
	d="
M1240.957153,264.383606 
	C1240.787231,264.442169 1240.850098,264.448914 1240.835449,264.454529 
	C1240.922852,264.415100 1241.024902,264.370056 1240.957153,264.383606 
z"/>
<path fill="#BD94E7" opacity="1.000000" stroke="none" 
	d="
M1182.068359,318.070648 
	C1181.933838,318.389435 1181.759644,318.667358 1181.345947,319.021851 
	C1181.106201,319.098450 1181.031982,319.029633 1181.082520,318.761536 
	C1181.327393,318.200714 1181.597290,318.021454 1181.942627,317.955688 
	C1181.942627,317.955688 1182.028809,318.029816 1182.068359,318.070648 
z"/>
<path fill="#AA77E0" opacity="1.000000" stroke="none" 
	d="
M1238.657227,264.510986 
	C1238.568604,264.731537 1238.235596,264.814667 1237.650146,264.814453 
	C1237.736084,264.611938 1238.074463,264.492767 1238.657227,264.510986 
z"/>
<path fill="#F2F2F2" opacity="1.000000" stroke="none" 
	d="
M268.200500,318.123077 
	C268.367798,317.956787 268.580811,318.037323 268.853149,318.353180 
	C268.699707,318.500336 268.477631,318.427460 268.200500,318.123077 
z"/>
<path fill="#F2F2F2" opacity="1.000000" stroke="none" 
	d="
M264.993378,403.506042 
	C264.994904,418.549347 264.994904,433.148468 264.994904,447.747559 
	C264.240784,447.787079 263.486664,447.826569 262.732544,447.866089 
	C262.488342,446.292511 262.008881,444.714600 262.037903,443.146088 
	C262.237244,432.366577 262.604584,421.589966 262.772156,410.810181 
	C262.815430,408.027405 262.218048,405.237610 262.193298,402.448547 
	C262.187744,401.821228 263.347839,401.183563 263.971344,400.550659 
	C264.311493,401.387695 264.651672,402.224762 264.993378,403.506042 
z"/>
<path fill="#F2F2F2" opacity="1.000000" stroke="none" 
	d="
M264.995117,383.003815 
	C264.909210,387.628937 264.846436,391.759796 264.691589,395.887207 
	C264.679749,396.202271 264.016357,396.492950 263.650421,396.799469 
	C261.300171,393.598175 261.286530,372.939087 263.569855,368.779572 
	C264.044952,368.754456 264.520020,368.729340 264.995117,368.704224 
	C264.995117,373.305695 264.995117,377.907196 264.995117,383.003815 
z"/>
<path fill="#F2F2F2" opacity="1.000000" stroke="none" 
	d="
M264.621826,356.940155 
	C264.697601,360.472839 264.697601,363.589142 264.697601,366.705475 
	C264.141602,366.692596 263.585571,366.679688 263.029572,366.666809 
	C263.029572,359.990753 263.029572,353.314697 263.029572,346.638641 
	C263.535065,346.629761 264.040527,346.620880 264.546021,346.612000 
	C264.546021,349.915924 264.546021,353.219879 264.621826,356.940155 
z"/>
<path fill="#F2F2F2" opacity="1.000000" stroke="none" 
	d="
M261.879272,341.136078 
	C261.924255,338.275635 262.044403,335.791992 262.184692,332.891541 
	C265.296387,335.019440 266.027954,341.871338 263.840790,343.183411 
	C263.624054,343.313446 262.602448,342.101807 261.879272,341.136078 
z"/>
<path fill="#E9E8E8" opacity="1.000000" stroke="none" 
	d="
M1725.019287,335.797668 
	C1725.084717,335.033997 1725.156982,334.567749 1725.229126,334.101532 
	C1725.390625,334.092834 1725.552002,334.084167 1725.713379,334.075500 
	C1725.713379,334.999756 1725.717529,335.924133 1725.699219,336.848022 
	C1725.698486,336.888672 1725.401001,336.969421 1725.395142,336.957275 
	C1725.259155,336.676147 1725.144775,336.384674 1725.019287,335.797668 
z"/>
<path fill="#E9E8E8" opacity="1.000000" stroke="none" 
	d="
M1725.949097,352.986511 
	C1725.714233,353.464417 1725.478271,353.676453 1725.242310,353.888489 
	C1725.237183,353.297943 1725.231934,352.707367 1725.226807,352.116791 
	C1725.467285,352.318085 1725.707642,352.519379 1725.949097,352.986511 
z"/>
<path fill="#9C53FA" opacity="1.000000" stroke="none" 
	d="
M1228.565186,266.972046 
	C1230.096069,267.030121 1231.182373,267.104980 1232.868286,267.221161 
	C1231.357910,268.847046 1230.226929,270.064362 1229.047729,271.606262 
	C1223.152344,276.983826 1217.269775,281.996399 1211.471924,287.105225 
	C1208.021362,290.145844 1204.703979,293.337921 1200.845093,296.776672 
	C1198.909790,298.063324 1197.456299,299.035217 1196.003174,299.636841 
	C1196.791626,298.113190 1197.422607,296.802887 1198.393555,295.832794 
	C1203.266235,290.964661 1208.419312,286.360046 1213.051270,281.277771 
	C1214.613037,279.564087 1214.931885,276.717590 1215.818726,274.388855 
	C1213.580688,273.593872 1211.365479,272.198792 1209.100586,272.113281 
	C1201.452026,271.824646 1193.780518,271.850128 1186.130249,272.113525 
	C1184.389404,272.173431 1182.416748,273.353546 1181.038940,274.570618 
	C1177.427124,277.760986 1174.235229,281.428833 1170.604736,284.595276 
	C1162.415894,291.737549 1154.015747,298.636932 1145.797852,305.746490 
	C1141.817993,309.189636 1137.992554,312.818878 1134.208862,316.479340 
	C1128.450195,322.050323 1122.827393,327.761719 1117.061523,333.324921 
	C1115.410522,334.917755 1113.539185,336.314880 1111.635132,337.604187 
	C1109.338623,339.159180 1106.732422,340.288055 1104.553223,341.978943 
	C1097.393921,347.533844 1092.438110,346.814362 1085.442749,341.218903 
	C1078.976318,336.046326 1071.277588,332.414581 1066.430664,325.282471 
	C1066.100830,324.797241 1065.230347,324.715393 1064.704224,324.321686 
	C1062.057983,322.340973 1059.331543,320.446625 1056.843262,318.280792 
	C1053.340942,315.232391 1050.046997,311.946106 1046.622070,308.807312 
	C1037.816162,300.736969 1028.326782,293.287079 1020.366333,284.457062 
	C1013.407959,276.738586 1005.637939,272.860352 995.502258,272.961548 
	C993.535828,272.981171 991.569641,272.457733 989.595398,272.375214 
	C984.370178,272.156799 979.101746,271.591797 973.925842,272.038208 
	C970.183838,272.360931 970.361633,274.953125 972.785706,277.258575 
	C978.284058,282.487762 983.826538,287.670868 989.376465,292.845398 
	C998.737671,301.573364 1008.149719,310.247009 1017.481140,319.006561 
	C1024.681396,325.765686 1031.789307,332.623352 1038.945312,339.429901 
	C1039.425293,339.886383 1040.003906,340.241394 1040.470581,340.709503 
	C1045.807983,346.063873 1051.212280,351.356445 1056.375732,356.874237 
	C1057.158813,357.711090 1056.806885,359.610016 1056.979980,361.017670 
	C1056.489624,360.752075 1055.999268,360.486511 1055.250977,360.112854 
	C1043.898926,345.442230 1030.197144,333.509277 1016.435669,321.621307 
	C1014.329956,319.802277 1012.867065,317.247620 1010.792664,315.382568 
	C996.385742,302.429382 981.872314,289.594727 967.470703,276.635742 
	C966.099854,275.402252 965.262207,273.576263 964.177002,272.025330 
	C965.943298,271.020752 967.715332,269.141754 969.475037,269.153198 
	C981.086365,269.228790 992.796265,268.930176 1004.258423,270.416718 
	C1009.373840,271.080109 1014.574219,274.923553 1018.711487,278.506714 
	C1027.707275,286.297791 1035.931763,294.971161 1044.682617,303.055389 
	C1053.812134,311.489227 1063.013184,319.864563 1072.523315,327.860626 
	C1078.442871,332.837708 1084.948242,337.128571 1091.277222,341.604919 
	C1095.813843,344.813538 1099.699829,342.042694 1102.942139,339.388000 
	C1110.982300,332.804779 1118.775757,325.909058 1126.488525,318.939728 
	C1136.568726,309.831085 1146.475708,300.530579 1157.119507,291.156708 
	C1158.855469,290.004089 1159.929199,289.007355 1161.002808,288.010620 
	C1168.588135,282.671997 1173.024414,273.552368 1183.109619,270.128052 
	C1189.056641,269.997284 1194.212769,270.124664 1199.359375,269.958038 
	C1202.916260,269.842865 1206.460083,269.321625 1210.009766,268.981812 
	C1210.748169,268.979126 1211.486694,268.976440 1213.031494,268.984985 
	C1216.228638,268.346527 1218.619385,267.696808 1221.010254,267.047058 
	C1223.380371,267.027649 1225.750610,267.008240 1228.565186,266.972046 
z"/>
<path fill="#A15BFB" opacity="1.000000" stroke="none" 
	d="
M1209.709229,268.691986 
	C1206.460083,269.321625 1202.916260,269.842865 1199.359375,269.958038 
	C1194.212769,270.124664 1189.056641,269.997284 1183.431396,269.984924 
	C1183.755371,269.330322 1184.551147,268.129913 1185.350098,268.127808 
	C1193.369385,268.106506 1201.389160,268.282043 1209.709229,268.691986 
z"/>
<path fill="#A15BFB" opacity="1.000000" stroke="none" 
	d="
M1220.576416,267.032532 
	C1218.619385,267.696808 1216.228638,268.346527 1213.400635,268.987488 
	C1215.356567,268.325134 1217.749512,267.671570 1220.576416,267.032532 
z"/>
<path fill="#A15BFB" opacity="1.000000" stroke="none" 
	d="
M1160.674805,288.038391 
	C1159.929199,289.007355 1158.855469,290.004089 1157.425781,291.010376 
	C1158.161987,290.035309 1159.254395,289.050720 1160.674805,288.038391 
z"/>
<path fill="#8B3AFC" opacity="1.000000" stroke="none" 
	d="
M1056.989258,361.415100 
	C1056.806885,359.610016 1057.158813,357.711090 1056.375732,356.874237 
	C1051.212280,351.356445 1045.807983,346.063873 1040.470581,340.709503 
	C1040.003906,340.241394 1039.425293,339.886383 1038.945312,339.429901 
	C1031.789307,332.623352 1024.681396,325.765686 1017.481140,319.006561 
	C1008.149719,310.247009 998.737671,301.573364 989.376465,292.845398 
	C983.826538,287.670868 978.284058,282.487762 972.785706,277.258575 
	C970.361633,274.953125 970.183838,272.360931 973.925842,272.038208 
	C979.101746,271.591797 984.370178,272.156799 989.595398,272.375214 
	C991.569641,272.457733 993.535828,272.981171 995.502258,272.961548 
	C1005.637939,272.860352 1013.407959,276.738586 1020.366333,284.457062 
	C1028.326782,293.287079 1037.816162,300.736969 1046.622070,308.807312 
	C1050.046997,311.946106 1053.340942,315.232391 1056.843262,318.280792 
	C1059.331543,320.446625 1062.057983,322.340973 1064.704224,324.321686 
	C1065.230347,324.715393 1066.100830,324.797241 1066.430664,325.282471 
	C1071.277588,332.414581 1078.976318,336.046326 1085.442749,341.218903 
	C1092.438110,346.814362 1097.393921,347.533844 1104.553223,341.978943 
	C1106.732422,340.288055 1109.338623,339.159180 1111.635132,337.604187 
	C1113.539185,336.314880 1115.410522,334.917755 1117.061523,333.324921 
	C1122.827393,327.761719 1128.450195,322.050323 1134.208862,316.479340 
	C1137.992554,312.818878 1141.817993,309.189636 1145.797852,305.746490 
	C1154.015747,298.636932 1162.415894,291.737549 1170.604736,284.595276 
	C1174.235229,281.428833 1177.427124,277.760986 1181.038940,274.570618 
	C1182.416748,273.353546 1184.389404,272.173431 1186.130249,272.113525 
	C1193.780518,271.850128 1201.452026,271.824646 1209.100586,272.113281 
	C1211.365479,272.198792 1213.580688,273.593872 1215.818726,274.388855 
	C1214.931885,276.717590 1214.613037,279.564087 1213.051270,281.277771 
	C1208.419312,286.360046 1203.266235,290.964661 1198.393555,295.832794 
	C1197.422607,296.802887 1196.791626,298.113190 1195.852783,299.931519 
	C1194.134644,301.730560 1192.567261,302.864655 1190.640869,303.998718 
	C1188.288696,304.598816 1185.573608,304.612854 1186.988281,308.326996 
	C1186.652100,309.437927 1186.353149,310.231537 1186.054199,311.025146 
	C1185.527100,311.823364 1185.000122,312.621582 1184.058105,313.290405 
	C1182.282959,313.427826 1180.530762,313.246277 1179.627319,314.035858 
	C1174.614380,318.417297 1169.820435,323.048431 1164.926270,327.566833 
	C1161.226440,330.982605 1157.542847,334.419128 1153.753296,337.733612 
	C1149.840576,341.155884 1145.423096,344.087463 1141.933105,347.883453 
	C1138.172729,351.973480 1133.682007,355.860809 1133.048828,362.019684 
	C1133.038330,362.761322 1133.027832,363.502960 1132.738770,364.858032 
	C1133.062866,367.500458 1133.050415,370.157074 1134.372192,371.452087 
	C1140.842529,377.791504 1147.615479,383.827789 1154.393799,389.844574 
	C1157.205566,392.340515 1160.554688,394.261261 1163.212158,396.894958 
	C1170.023193,403.645172 1176.308228,410.942871 1183.307129,417.482941 
	C1194.332886,427.785797 1205.847168,437.564545 1216.942017,447.795807 
	C1218.399780,449.140045 1218.603638,451.843811 1219.388306,453.917938 
	C1217.469116,454.611084 1215.563354,455.855408 1213.628296,455.902924 
	C1204.802246,456.119751 1195.950806,456.313843 1187.146240,455.829712 
	C1184.120117,455.663269 1180.644409,454.140961 1178.342896,452.129547 
	C1171.583252,446.222015 1165.435181,439.621704 1158.814575,433.546661 
	C1150.798096,426.190735 1142.553101,419.083252 1134.387451,411.890472 
	C1129.698364,407.759949 1124.869385,403.782501 1120.287720,399.537109 
	C1115.474976,395.077606 1110.940552,390.318939 1106.178101,385.803314 
	C1100.621460,380.534668 1093.882202,376.952209 1087.836670,384.434082 
	C1085.751953,387.014099 1082.129395,388.315765 1079.332031,390.368591 
	C1077.497925,391.714539 1075.822632,393.297363 1074.183716,394.884918 
	C1070.798340,398.164001 1067.559814,401.597809 1064.112061,404.808044 
	C1062.208618,406.580322 1059.842285,407.860535 1057.968140,409.658020 
	C1054.048462,413.417358 1050.522827,417.605377 1046.466675,421.201355 
	C1036.295410,430.218506 1026.003296,439.104492 1015.592102,447.843506 
	C1009.671753,452.812927 1003.716431,457.959106 994.896484,456.079803 
	C992.506165,455.570496 989.889954,455.804321 987.425049,456.097778 
	C986.210815,456.242310 985.105408,457.300598 983.950745,457.945374 
	C983.528076,457.946503 983.105408,457.947601 982.258179,457.564575 
	C980.165894,456.789124 978.487000,456.439270 976.833191,455.996216 
	C974.760193,455.440796 972.707642,454.808868 970.646240,454.210022 
	C971.702454,452.367126 972.416626,450.178345 973.872192,448.739288 
	C981.559021,441.139130 989.479370,433.775360 997.186157,426.194824 
	C998.220886,425.177063 998.505676,423.396851 999.234436,421.718475 
	C999.884155,421.038208 1000.437134,420.609161 1001.226318,420.412933 
	C1002.369507,420.481567 1003.581238,420.635406 1004.136108,420.103729 
	C1009.368042,415.090363 1014.344116,409.803436 1019.677185,404.903656 
	C1026.160889,398.946899 1034.277100,395.092346 1039.590942,387.459320 
	C1044.609131,380.250732 1051.171021,374.120941 1056.959717,367.435089 
	C1057.364136,366.967926 1056.988159,365.824982 1056.975098,364.996277 
	C1056.982910,363.935028 1056.990723,362.873779 1056.989258,361.415100 
z"/>
<path fill="#A15BFB" opacity="1.000000" stroke="none" 
	d="
M984.423584,457.972992 
	C985.105408,457.300598 986.210815,456.242310 987.425049,456.097778 
	C989.889954,455.804321 992.506165,455.570496 994.896484,456.079803 
	C1003.716431,457.959106 1009.671753,452.812927 1015.592102,447.843506 
	C1026.003296,439.104492 1036.295410,430.218506 1046.466675,421.201355 
	C1050.522827,417.605377 1054.048462,413.417358 1057.968140,409.658020 
	C1059.842285,407.860535 1062.208618,406.580322 1064.112061,404.808044 
	C1067.559814,401.597809 1070.798340,398.164001 1074.183716,394.884918 
	C1075.822632,393.297363 1077.497925,391.714539 1079.332031,390.368591 
	C1082.129395,388.315765 1085.751953,387.014099 1087.836670,384.434082 
	C1093.882202,376.952209 1100.621460,380.534668 1106.178101,385.803314 
	C1110.940552,390.318939 1115.474976,395.077606 1120.287720,399.537109 
	C1124.869385,403.782501 1129.698364,407.759949 1134.387451,411.890472 
	C1142.553101,419.083252 1150.798096,426.190735 1158.814575,433.546661 
	C1165.435181,439.621704 1171.583252,446.222015 1178.342896,452.129547 
	C1180.644409,454.140961 1184.120117,455.663269 1187.146240,455.829712 
	C1195.950806,456.313843 1204.802246,456.119751 1213.628296,455.902924 
	C1215.563354,455.855408 1217.469116,454.611084 1219.388306,453.917938 
	C1218.603638,451.843811 1218.399780,449.140045 1216.942017,447.795807 
	C1205.847168,437.564545 1194.332886,427.785797 1183.307129,417.482941 
	C1176.308228,410.942871 1170.023193,403.645172 1163.212158,396.894958 
	C1160.554688,394.261261 1157.205566,392.340515 1154.393799,389.844574 
	C1147.615479,383.827789 1140.842529,377.791504 1134.372192,371.452087 
	C1133.050415,370.157074 1133.062866,367.500458 1132.734375,365.228882 
	C1139.684082,371.489319 1146.284424,378.071991 1153.054321,384.475372 
	C1161.706543,392.659271 1170.527954,400.663971 1179.210205,408.816559 
	C1182.816650,412.203094 1186.106689,415.934052 1189.790039,419.229675 
	C1203.715698,431.689240 1217.757935,444.018494 1231.699097,456.460846 
	C1232.562988,457.231812 1232.933350,458.555817 1233.533325,459.622559 
	C1232.204468,459.992157 1230.832275,460.774963 1229.556396,460.640686 
	C1227.277100,460.400757 1225.055908,459.607666 1222.000488,458.987061 
	C1217.018311,458.233582 1212.745361,456.149017 1208.437744,459.837524 
	C1202.026123,459.845764 1196.066406,459.836578 1189.977539,459.465698 
	C1185.605103,458.382172 1181.361694,457.660309 1176.842529,456.924194 
	C1176.383301,456.926788 1176.199951,456.943634 1176.016479,456.960480 
	C1176.016479,456.960480 1175.992676,456.991547 1175.929810,456.744995 
	C1175.583862,456.325134 1175.300659,456.151794 1175.017456,455.978455 
	C1175.017456,455.978485 1175.004883,455.996338 1174.939453,455.744202 
	C1174.595825,455.321014 1174.317871,455.149994 1174.039795,454.978973 
	C1174.039795,454.978973 1174.017090,454.999817 1173.943115,454.744354 
	C1173.589111,454.319580 1173.309204,454.150269 1173.029297,453.980927 
	C1173.029297,453.980927 1173.019775,453.964417 1173.031250,453.951508 
	C1172.244507,452.059113 1171.446045,450.179626 1170.339478,448.126099 
	C1167.294312,445.406433 1164.585571,442.829468 1161.815063,440.320801 
	C1151.624756,431.093658 1141.397583,421.907318 1131.216187,412.670349 
	C1123.266235,405.457794 1115.379150,398.175842 1107.429932,390.962494 
	C1105.221924,388.958801 1103.032349,386.883698 1100.582153,385.210663 
	C1097.533203,383.128815 1094.654175,382.937103 1091.064209,385.228088 
	C1083.441895,390.092468 1077.189819,396.123169 1071.201050,402.881012 
	C1065.664307,409.128784 1058.490356,413.916656 1052.120117,419.442688 
	C1050.904419,420.497223 1050.073853,421.995514 1049.025269,423.629700 
	C1048.984863,423.970306 1048.989990,423.992401 1048.603760,423.990356 
	C1046.741821,424.564819 1044.963501,424.795990 1043.842651,425.777649 
	C1039.008423,430.011902 1034.299316,434.396851 1029.693848,438.880280 
	C1028.216919,440.318085 1027.199097,442.227570 1025.971313,443.921265 
	C1025.971313,443.921265 1025.946777,443.946167 1025.927979,443.950745 
	C1020.905334,447.507996 1016.010681,451.231232 1010.849609,454.538910 
	C1008.399597,456.109161 1005.504578,457.630463 1002.700256,457.868652 
	C996.804443,458.369415 990.835449,458.008087 984.423584,457.972992 
z"/>
<path fill="#A15BFB" opacity="1.000000" stroke="none" 
	d="
M1133.348145,362.010437 
	C1133.682007,355.860809 1138.172729,351.973480 1141.933105,347.883453 
	C1145.423096,344.087463 1149.840576,341.155884 1153.753296,337.733612 
	C1157.542847,334.419128 1161.226440,330.982605 1164.926270,327.566833 
	C1169.820435,323.048431 1174.614380,318.417297 1179.627319,314.035858 
	C1180.530762,313.246277 1182.282959,313.427826 1183.803711,313.410034 
	C1183.305176,314.864349 1182.646118,316.069611 1181.964844,317.615295 
	C1181.597290,318.021454 1181.327393,318.200714 1181.046143,318.726318 
	C1180.619873,319.018555 1180.348633,319.187439 1180.042114,319.686584 
	C1177.718628,319.489960 1175.121094,318.283478 1175.003662,322.626770 
	C1167.093506,330.126434 1159.186768,337.266357 1151.133057,344.706421 
	C1143.231567,347.987671 1138.906006,354.376221 1134.894043,361.486816 
	C1134.436890,361.890533 1134.042236,361.945862 1133.348145,362.010437 
z"/>
<path fill="#BD94E7" opacity="1.000000" stroke="none" 
	d="
M1190.106689,459.827423 
	C1196.066406,459.836578 1202.026123,459.845764 1208.909302,459.897766 
	C1213.885254,459.969818 1217.937744,459.999084 1221.990234,460.028351 
	C1222.938599,460.525818 1223.887085,461.023315 1224.311646,461.246033 
	C1209.866089,461.246033 1194.900635,461.246033 1179.596924,461.025360 
	C1179.258545,460.804688 1179.144897,460.418884 1179.556152,460.205444 
	C1183.347168,459.937103 1186.726929,459.882263 1190.106689,459.827423 
z"/>
<path fill="#B17CEE" opacity="1.000000" stroke="none" 
	d="
M1221.998779,459.786316 
	C1217.937744,459.999084 1213.885254,459.969818 1209.361328,459.880341 
	C1212.745361,456.149017 1217.018311,458.233582 1221.602539,458.994110 
	C1222.014648,459.059937 1222.007446,459.544250 1221.998779,459.786316 
z"/>
<path fill="#BD94E7" opacity="1.000000" stroke="none" 
	d="
M1165.988770,448.007874 
	C1165.657959,447.911133 1165.397583,447.723450 1165.098633,447.226196 
	C1165.001709,446.997437 1165.024414,446.969574 1165.024414,446.969574 
	C1165.350586,447.066925 1165.612305,447.254211 1165.915283,447.752014 
	C1166.020996,447.972626 1166.000977,447.997742 1165.988770,448.007874 
z"/>
<path fill="#BD94E7" opacity="1.000000" stroke="none" 
	d="
M1164.988037,447.009033 
	C1164.857422,446.862366 1164.740479,446.704102 1164.623413,446.545837 
	C1164.717041,446.593018 1164.810791,446.640198 1164.964355,446.828491 
	C1165.024414,446.969574 1165.001709,446.997437 1164.988037,447.009033 
z"/>
<path fill="#A15BFB" opacity="1.000000" stroke="none" 
	d="
M999.137756,421.969727 
	C998.505676,423.396851 998.220886,425.177063 997.186157,426.194824 
	C989.479370,433.775360 981.559021,441.139130 973.872192,448.739288 
	C972.416626,450.178345 971.702454,452.367126 970.646240,454.210022 
	C972.707642,454.808868 974.760193,455.440796 976.833191,455.996216 
	C978.487000,456.439270 980.165894,456.789124 981.941162,457.563080 
	C974.053894,458.600708 966.058960,459.255676 956.734192,460.019562 
	C962.271179,454.897461 967.040039,450.545715 971.741089,446.121918 
	C977.507202,440.695953 983.216553,435.209717 989.002930,429.414490 
	C989.942993,428.572571 990.830566,428.065643 992.165649,427.136749 
	C994.788025,425.133087 996.962891,423.551392 999.137756,421.969727 
z"/>
<path fill="#9C53FA" opacity="1.000000" stroke="none" 
	d="
M1056.675293,365.141663 
	C1056.988159,365.824982 1057.364136,366.967926 1056.959717,367.435089 
	C1051.171021,374.120941 1044.609131,380.250732 1039.590942,387.459320 
	C1034.277100,395.092346 1026.160889,398.946899 1019.677185,404.903656 
	C1014.344116,409.803436 1009.368042,415.090363 1004.136108,420.103729 
	C1003.581238,420.635406 1002.369507,420.481567 1001.235474,420.017761 
	C1001.026672,418.610931 1001.044861,417.832001 1001.063110,417.053101 
	C1001.186707,416.750031 1001.378296,416.498871 1002.211121,416.169647 
	C1006.166626,413.345795 1009.549011,410.651825 1012.931396,407.957886 
	C1013.255005,407.843872 1013.520020,407.649811 1014.151123,407.034607 
	C1016.702759,404.452728 1018.829712,402.211975 1020.956665,399.971252 
	C1020.956665,399.971252 1020.997681,399.985291 1021.327515,399.953400 
	C1023.420166,398.270081 1025.182861,396.618652 1026.945679,394.967224 
	C1026.945679,394.967224 1026.989868,394.978088 1027.312012,394.948303 
	C1028.749756,393.942963 1029.865112,392.967377 1030.980591,391.991821 
	C1030.980591,391.991821 1031.006592,391.985352 1031.311279,391.831787 
	C1034.415405,388.139130 1037.214844,384.600067 1040.014282,381.061005 
	C1040.014282,381.061005 1040.031250,381.033447 1040.046509,381.024811 
	C1043.319824,378.437164 1046.773193,376.063873 1049.775391,373.215149 
	C1052.252441,370.864471 1054.195801,367.951111 1056.675293,365.141663 
z"/>
<path fill="#AA77E0" opacity="1.000000" stroke="none" 
	d="
M1039.668701,381.077942 
	C1037.214844,384.600067 1034.415405,388.139130 1031.315308,391.818909 
	C1030.875000,386.113342 1035.694336,384.059326 1039.668701,381.077942 
z"/>
<path fill="#B17CEE" opacity="1.000000" stroke="none" 
	d="
M1000.749451,417.176392 
	C1001.044861,417.832001 1001.026672,418.610931 1000.999329,419.784973 
	C1000.437134,420.609161 999.884155,421.038208 999.234436,421.718445 
	C996.962891,423.551392 994.788025,425.133087 992.314209,426.854340 
	C994.822083,423.762482 997.628967,420.531097 1000.749451,417.176392 
z"/>
<path fill="#B17CEE" opacity="1.000000" stroke="none" 
	d="
M1012.572937,407.970703 
	C1009.549011,410.651825 1006.166626,413.345795 1002.419189,416.051514 
	C1005.440796,413.370087 1008.827637,410.676819 1012.572937,407.970703 
z"/>
<path fill="#B17CEE" opacity="1.000000" stroke="none" 
	d="
M1020.593140,399.981171 
	C1018.829712,402.211975 1016.702759,404.452728 1014.268066,406.814453 
	C1016.050049,404.620636 1018.139893,402.305847 1020.593140,399.981171 
z"/>
<path fill="#B17CEE" opacity="1.000000" stroke="none" 
	d="
M1026.585693,394.977417 
	C1025.182861,396.618652 1023.420166,398.270081 1021.314941,399.935547 
	C1022.723511,398.295593 1024.474609,396.641602 1026.585693,394.977417 
z"/>
<path fill="#B17CEE" opacity="1.000000" stroke="none" 
	d="
M1030.620361,391.994873 
	C1029.865112,392.967377 1028.749756,393.942963 1027.301758,394.927979 
	C1028.066284,393.957642 1029.163208,392.977783 1030.620361,391.994873 
z"/>
<path fill="#B17CEE" opacity="1.000000" stroke="none" 
	d="
M1026.317993,443.909393 
	C1027.199097,442.227570 1028.216919,440.318085 1029.693848,438.880280 
	C1034.299316,434.396851 1039.008423,430.011902 1043.842651,425.777649 
	C1044.963501,424.795990 1046.741821,424.564819 1048.596436,423.986389 
	C1041.538574,430.622162 1034.101562,437.259827 1026.317993,443.909393 
z"/>
<path fill="#B17CEE" opacity="1.000000" stroke="none" 
	d="
M1186.442505,311.027802 
	C1186.353149,310.231537 1186.652100,309.437927 1187.275757,308.191528 
	C1188.733643,306.492065 1189.866821,305.245392 1191.000000,303.998749 
	C1192.567261,302.864655 1194.134644,301.730560 1195.852295,300.301758 
	C1197.456299,299.035217 1198.909790,298.063324 1200.698853,297.082214 
	C1199.090454,299.461761 1197.133057,301.839630 1195.209595,304.244720 
	C1194.431396,305.217651 1193.727661,306.250031 1192.976562,307.614136 
	C1192.649048,308.078766 1192.391235,308.263031 1192.076172,308.737854 
	C1191.327026,309.404510 1190.691284,309.859009 1190.000366,310.626831 
	C1188.907104,310.970245 1187.868896,311.000366 1186.442505,311.027802 
z"/>
<path fill="#FCFCFC" opacity="1.000000" stroke="none" 
	d="
M265.448883,458.530701 
	C265.417358,458.476685 265.480408,458.584717 265.448883,458.530701 
z"/>
<path fill="#BD94E7" opacity="1.000000" stroke="none" 
	d="
M1174.028931,455.188293 
	C1174.317871,455.149994 1174.595825,455.321014 1174.948486,455.732849 
	C1174.856445,455.962982 1174.689941,455.952301 1174.281006,455.878967 
	C1174.038574,455.816315 1174.018066,455.397614 1174.028931,455.188293 
z"/>
<path fill="#BD94E7" opacity="1.000000" stroke="none" 
	d="
M1173.124268,454.207520 
	C1173.309204,454.150269 1173.589111,454.319580 1173.944336,454.729980 
	C1173.682739,454.896667 1173.415894,454.717682 1173.124268,454.207520 
z"/>
<path fill="#B17CEE" opacity="1.000000" stroke="none" 
	d="
M1189.977539,459.465698 
	C1186.726929,459.882263 1183.347168,459.937103 1179.515503,460.008453 
	C1178.674072,459.962952 1178.284546,459.900940 1177.615967,459.748840 
	C1177.244385,459.292664 1177.151978,458.926605 1177.052979,458.012573 
	C1177.070312,457.289215 1177.094238,457.113861 1177.118286,456.938477 
	C1181.361694,457.660309 1185.605103,458.382172 1189.977539,459.465698 
z"/>
<path fill="#BD94E7" opacity="1.000000" stroke="none" 
	d="
M1176.842529,456.924225 
	C1177.094238,457.113861 1177.070312,457.289215 1177.023315,457.729065 
	C1176.679565,457.880432 1176.420166,457.685547 1176.119385,457.184662 
	C1176.199951,456.943634 1176.383301,456.926788 1176.842529,456.924225 
z"/>
<path fill="#BD94E7" opacity="1.000000" stroke="none" 
	d="
M1175.120239,456.204590 
	C1175.300659,456.151794 1175.583862,456.325134 1175.948730,456.741150 
	C1175.697266,456.893127 1175.428101,456.708771 1175.120239,456.204590 
z"/>
<path fill="#9C53FA" opacity="1.000000" stroke="none" 
	d="
M1190.640869,303.998718 
	C1189.866821,305.245392 1188.733643,306.492065 1187.313232,307.874207 
	C1185.573608,304.612854 1188.288696,304.598816 1190.640869,303.998718 
z"/>
</svg>