<?xml version="1.0" standalone="no"?>
<!DOCTYPE svg PUBLIC "-//W3C//DTD SVG 20010904//EN"
 "http://www.w3.org/TR/2001/REC-SVG-20010904/DTD/svg10.dtd">
<svg version="1.0" xmlns="http://www.w3.org/2000/svg"
 width="2172.000000pt" height="724.000000pt" viewBox="0 0 2172.000000 724.000000"
 preserveAspectRatio="xMidYMid meet">

<g transform="translate(0.000000,724.000000) scale(0.100000,-0.100000)"
fill="#000000" stroke="none">
<path d="M9163 4876 c-3 -5 2 -13 11 -18 9 -5 42 -31 74 -57 31 -27 122 -104
202 -171 80 -67 244 -203 365 -303 121 -100 292 -242 379 -317 87 -74 183
-155 212 -178 30 -24 52 -48 48 -53 -3 -5 -37 -35 -76 -67 -219 -177 -240
-194 -603 -502 -66 -56 -140 -118 -165 -138 -45 -37 -151 -127 -353 -300
l-107 -92 331 0 c271 0 334 3 343 14 6 7 121 108 256 222 324 276 343 293 713
602 l319 266 -30 25 c-16 14 -184 155 -373 313 -512 427 -610 510 -782 658
l-122 105 -318 0 c-176 0 -321 -4 -324 -9z"/>
<path d="M11644 4697 c-393 -338 -544 -470 -543 -476 0 -3 68 -62 150 -129
l150 -124 47 38 c26 21 88 72 137 114 50 41 167 138 260 215 94 77 179 147
190 156 165 138 391 323 429 352 27 20 47 37 45 37 -2 1 -148 2 -325 3 l-320
2 -220 -188z"/>
<path d="M18924 4876 c-2 -6 -5 -374 -7 -818 l-2 -807 -35 30 c-29 26 -118
104 -305 271 -16 14 -39 35 -51 45 -11 10 -52 46 -90 79 -38 34 -109 97 -159
140 -49 44 -99 88 -110 99 -51 49 -403 359 -545 480 -58 49 -186 162 -284 250
-99 88 -199 177 -222 198 l-42 37 -201 0 -201 0 0 -337 c0 -186 -1 -679 -1
-1096 -1 -417 0 -760 3 -763 3 -2 91 -6 197 -7 l191 -2 0 811 c0 446 3 814 6
817 4 4 39 -22 78 -57 39 -34 152 -134 251 -221 199 -174 194 -170 385 -341
74 -66 196 -174 270 -239 121 -106 527 -463 776 -683 l94 -83 92 -1 c51 0 140
0 198 1 l105 1 3 1099 c3 1047 2 1099 -15 1105 -29 12 -375 4 -379 -8z"/>
<path d="M6323 4873 l-413 -3 0 -205 0 -205 1318 2 1317 3 3 203 2 202 -422 0
c-233 0 -641 2 -908 3 -267 2 -671 2 -897 0z"/>
<path d="M13073 4048 c2 -586 7 -852 15 -898 21 -114 95 -239 195 -326 59 -52
174 -111 234 -120 26 -4 59 -11 73 -17 35 -14 1723 -11 1749 3 11 5 34 10 52
10 19 0 71 19 119 42 141 70 255 200 311 353 24 69 29 239 28 993 l-1 792
-199 0 -199 0 0 -814 c0 -452 -4 -817 -9 -820 -4 -3 -11 -19 -14 -35 -4 -17
-24 -48 -46 -70 -74 -74 -46 -72 -933 -72 -847 0 -814 -2 -889 52 -16 11 -41
44 -54 72 l-25 51 0 818 0 818 -205 0 -205 0 3 -832z"/>
<path d="M2435 4858 c-3 -7 -4 -501 -3 -1098 l3 -1085 140 -2 c77 -1 170 1
208 4 l67 5 0 810 0 809 20 -14 c11 -8 96 -81 188 -162 92 -81 181 -159 197
-174 17 -14 111 -98 210 -186 213 -189 475 -420 554 -489 31 -26 92 -81 136
-120 44 -40 127 -115 185 -166 58 -51 159 -143 225 -204 l120 -111 207 3 207
3 -2 1092 -2 1092 -197 3 -198 2 0 -803 c0 -442 -3 -807 -6 -810 -4 -4 -47 30
-96 76 -50 45 -139 125 -198 177 -257 225 -515 454 -520 460 -3 3 -57 51 -120
105 -63 55 -120 104 -126 110 -6 5 -53 46 -105 90 -51 44 -176 154 -277 245
-101 91 -233 207 -293 258 l-108 92 -206 0 c-155 0 -207 -3 -210 -12z"/>
<path d="M5978 3952 l-68 -3 0 -204 0 -205 1318 2 1317 3 3 203 2 202 -377 0
c-208 0 -772 1 -1253 2 -481 2 -905 2 -942 0z"/>
<path d="M11374 3578 c-31 -25 -237 -195 -277 -229 -5 -4 24 -35 65 -70 41
-35 184 -161 319 -279 134 -118 272 -239 306 -268 l62 -52 326 2 326 3 -68 56
c-37 31 -102 88 -144 125 -78 71 -243 212 -557 475 -101 85 -214 180 -251 211
l-68 57 -39 -31z"/>
<path d="M5910 2875 l0 -195 73 -1 c519 -4 2423 -5 2485 -1 l82 5 -2 191 -3
191 -1317 2 -1318 3 0 -195z"/>
</g>
</svg>
